<svg width="792" height="454" viewBox="0 0 792 454" fill="none" xmlns="http://www.w3.org/2000/svg">
<g clip-path="url(#clip0_15_9)">
<path d="M411.531 1C418.867 2.3364 425.796 3.41393 432.59 5.05041C484.151 17.4687 521.794 47.6529 542.528 96.3013C564.001 146.686 559.134 195.911 529.36 242.265C526.773 246.294 523.845 250.103 521.173 253.876C508.096 245.924 498.709 234.768 489.993 222.983C485.427 216.809 486.143 209.388 492.24 205.129C498.21 200.959 499.919 196.651 497.403 189.411C494.092 179.886 494.732 179.667 502.869 173.716C504.6 172.45 506.311 171.155 508.274 169.692C502.684 161.695 497.206 153.859 491.727 146.023C492.316 145.996 492.905 145.969 493.494 145.942C493.968 143.296 495.112 140.565 494.791 138.02C493.834 130.442 492.434 122.91 490.89 115.426C490.548 113.772 489.231 111.822 487.793 110.976C481.363 107.193 474.769 103.677 468.132 100.262C466.596 99.4717 464.669 99.1974 462.905 99.1342C455.748 98.8776 448.569 99.0097 441.432 98.5049C439.554 98.372 437.166 96.8933 436.101 95.3034C431.947 89.1054 428.153 82.66 424.395 76.2076C423.101 73.9867 422.105 72.997 419.063 73.6332C388.845 79.9517 358.57 85.9994 327.868 92.2137C328.192 97.0916 328.408 101.888 328.868 106.661C329.117 109.24 328.856 111.184 325.899 111.901C318.266 113.754 314.167 118.583 313.852 126.507C313.52 134.844 308.65 139.141 300.969 140.844C295.623 142.029 293.183 144.751 294.682 150.566C295.414 153.405 294.652 156.605 295.226 159.512C297.297 169.996 295.053 179.377 289.538 188.457C288.282 190.526 289.076 194.521 290.121 197.154C291.843 201.491 291.904 204.995 288.185 208.141C282.279 213.135 281.492 218.917 285.539 225.455C288.046 229.503 286.969 232.563 283.449 235.689C278.607 239.99 274.27 244.859 269.455 249.751C260.083 237.524 252.97 224.484 247.989 210.33C224.978 144.95 245.047 76.2477 299.817 33.9266C323.623 15.5313 350.847 5.163 380.865 1.38421C391.021 1 401.042 1 411.531 1Z" fill="white"/>
<path d="M1 393.469C1.98036 390.293 3.01113 387.602 3.93334 384.875C14.0615 354.924 47.6498 342.876 73.4892 360.027C79.9752 364.332 84.8373 370.17 88.4137 377.538C82.1981 380.581 76.1351 383.55 70.3309 386.391C67.2389 382.983 64.7507 379.379 61.4665 376.781C51.9285 369.238 38.1602 371.555 31.1697 381.499C22.9776 393.152 22.9809 413.933 31.1766 425.499C39.8824 437.784 57.4646 437.899 66.5349 425.712C67.7025 424.143 68.7455 422.481 70.0156 420.614C76.3635 423.853 82.5222 426.996 88.9271 430.264C80.5646 443.897 69.1484 452.321 53.1736 454.64C48.3107 455 43.6215 455 38.3255 454.655C20.6585 450.204 9.27689 439.942 3.925 423.141C2.95393 420.093 1.97519 417.047 1 414C1 407.312 1 400.625 1 393.469Z" fill="white"/>
<path d="M749.461 455C748.232 454.501 747.524 453.718 746.688 453.543C727.619 449.55 719.05 433.016 720.757 414.402C721.417 407.215 723.663 399.577 727.298 393.384C734.938 380.367 750.262 375.467 766.667 379.171C780.149 382.215 789.8 393.829 792.02 409.68C792.112 410.337 792.194 410.995 792.64 411.827C793 414.7 793 417.4 792.538 420.468C775.495 420.837 758.914 420.837 742.37 420.837C741.74 428.499 745.562 435.022 751.844 437.462C760.693 440.899 768.177 437.468 776.664 426.015C781.341 428.404 786.043 430.792 790.723 433.223C791.134 433.437 791.398 433.932 791.721 434.287C785.69 443.99 780.313 448.625 770.604 452.171C767.476 453.314 764.205 454.068 761 455C757.307 455 753.614 455 749.461 455ZM750.624 407.54C757.351 407.54 764.078 407.54 770.824 407.54C770.351 398.388 765.197 393.384 756.952 393.494C748.903 393.602 742.994 399.347 742.734 407.54C745.051 407.54 747.362 407.54 750.624 407.54Z" fill="white"/>
<path d="M496.454 455C494.875 454.443 493.808 453.637 492.618 453.366C478.117 450.07 470.07 440.626 467.573 426.407C465.538 414.814 466.655 403.477 473.284 393.333C481.497 380.765 495.647 375.716 512.363 379.086C525.331 381.7 535.142 392.391 537.847 407.183C538.64 411.519 538.837 415.963 539.362 420.859C521.892 420.859 505.149 420.859 488.421 420.859C488.304 429.111 492.341 436.273 498.702 437.643C507.342 439.504 515.004 439.271 522.763 425.893C527.805 428.509 532.868 431.137 538.268 433.939C530.813 446.227 520.596 453.347 506.199 454.645C502.969 455 499.939 455 496.454 455ZM516.749 407.257C517.303 399.33 512.25 393.852 504.063 393.502C495.716 393.146 489.398 398.873 489.045 407.52C498.004 407.52 506.952 407.52 516.749 407.257Z" fill="white"/>
<path d="M467.212 188.32C458.025 188.905 449.267 189.484 440.509 190.063C440.372 189.792 440.236 189.521 440.099 189.249C451.38 181.014 462.661 172.779 474.436 164.184C471.806 160.415 469.351 156.574 466.492 153.064C465.9 152.337 463.745 152.547 462.408 152.815C450.861 155.123 439.337 157.544 427.482 159.357C434.546 154.604 441.602 149.838 448.677 145.101C454.608 141.129 460.598 137.244 466.491 133.215C469.585 131.099 469.658 128.419 466.301 126.942C462.332 125.197 458.051 123.622 453.785 123.211C446.678 122.528 439.465 122.536 432.319 122.824C427.908 123.002 423.454 123.917 419.169 125.063C409.648 127.61 400.221 130.511 389.88 133.522C396.299 139.283 401.965 144.582 407.889 149.577C410.191 151.518 410.761 153.115 409.414 155.905C407.916 159.009 407.422 162.622 405.786 165.63C402.133 172.344 401.755 178.857 405.482 185.613C406.768 187.941 406.5 189.862 403.689 191.218C393.364 196.198 388.728 203.671 394.644 215.443C378.137 220.508 367.236 232.962 353.784 241.576C352.44 242.437 350.385 242.783 348.789 242.536C345.032 241.957 341.177 241.31 337.676 239.907C329.699 236.71 321.968 238.813 314.207 240.4C312.759 240.697 311.405 242.019 310.255 243.126C301.858 251.207 293.525 259.355 284.916 267.732C282.972 265.646 280.737 263.247 278.187 260.51C285.78 252.77 293.214 245.022 300.867 237.497C303.052 235.349 304.178 233.498 302.203 230.762C302.109 230.632 302.096 230.446 302.014 230.306C297.365 222.366 297.613 215.168 305.112 208.964C307.55 206.947 307.47 204.388 306.105 201.799C302.626 195.199 303.294 189.191 307.523 182.946C309.306 180.312 309.47 176.446 309.9 173.079C310.19 170.811 309.705 168.434 309.484 166.113C308.236 153.011 308.267 153.099 319.865 147.834C321.519 147.083 322.762 145.136 323.835 143.505C324.518 142.468 324.746 141.007 324.822 139.715C325.412 129.67 329.858 122.71 340.092 120.254C342.605 119.65 343.366 118.167 343.148 115.517C342.824 111.566 343.064 107.569 343.064 103.094C355.588 100.479 368.537 97.7376 381.504 95.0816C391.601 93.0134 401.754 91.2022 411.809 88.9517C414.849 88.2715 416.27 89.0754 417.713 91.6343C421.056 97.5603 424.556 103.414 428.341 109.063C429.307 110.505 431.514 111.781 433.25 111.923C439.549 112.437 445.949 113.071 452.2 112.481C461.345 111.619 468.579 115.668 475.842 120.014C476.91 120.653 477.548 122.126 478.191 123.317C478.57 124.019 478.509 124.945 478.749 125.739C480.964 133.065 481.02 139.522 471.828 141.945C477.794 150.377 483.425 158.336 489.206 166.508C484.722 169.821 480.362 173.044 476.936 175.575C478.443 177.835 479.946 179.689 481.017 181.765C485.471 190.401 483.071 197.013 474.817 201.752C471.771 203.5 471.502 205.946 471.999 209.29C472.695 213.968 475.842 218.506 473.163 223.599C472.853 224.19 474.673 225.974 475.6 227.13C486.372 240.552 496.122 254.953 512.029 264.116C508.873 266.7 506.34 268.774 503.565 271.048C486.88 261.585 476.274 244.687 463.661 228.99C447.028 239.773 430.535 250.464 413.714 261.368C427.91 274.875 441.863 288.15 456.324 301.91C452.879 303.112 449.881 304.44 446.742 305.111C445.525 305.371 443.66 304.495 442.649 303.543C431.251 292.822 419.87 282.08 408.708 271.115C405.867 268.325 402.663 267.789 399.065 266.882C388.294 264.166 381.068 268.464 374.2 276.377C366.574 285.163 357.614 292.777 349.634 301.276C346.603 304.504 344.01 305.223 340.297 303.1C338.751 302.216 337.002 301.686 335.874 301.216C358.615 276.826 381.342 252.451 404.863 227.223C404.447 229.077 404.553 230.754 403.776 231.722C397.65 239.346 391.355 246.836 384.671 254.898C393.593 256.098 401.277 257.728 409.439 251.872C425.475 240.366 442.389 230.078 459.035 219.435C461.726 217.714 463.423 216.097 462.013 212.778C458.267 203.959 460.638 197.291 468.997 192.618C470.221 191.933 471.126 190.679 473.318 188.617C470.55 188.469 469.096 188.391 467.212 188.32ZM390.788 148.716C385.585 142.924 377.507 139.674 375.695 131.045C367.397 132.704 359.802 132.196 352.791 127.748C352.174 127.357 351.106 126.966 350.592 127.234C344.352 130.485 335.834 131.074 335.234 140.92C335.065 143.693 334.966 145.293 337.908 146.704C350.139 152.569 362.322 158.556 374.29 164.937C379.3 167.609 383.908 167.573 389.324 166.622C395.001 165.626 395.909 161.754 397.482 157.633C399.04 153.552 394.893 153.27 393.558 151.145C393.045 150.33 392.126 149.77 390.788 148.716ZM355.348 167.137C350.594 164.771 345.613 162.766 341.137 159.957C334.154 155.574 327.393 153.818 319.892 160.146C320.095 163.233 320.629 167.199 320.528 171.149C320.447 174.321 321.872 175.362 324.64 176.069C342.263 180.564 359.966 184.805 377.395 189.968C384.74 192.144 389.266 189.42 393.921 184.669C392.896 181.977 391.925 179.427 390.709 176.233C382.72 181.005 376.068 177.993 369.382 174.144C365.074 171.664 360.468 169.703 355.348 167.137ZM362.156 127.938C374.847 129.708 384.937 125.409 392.601 115.124C393.257 114.243 394.996 114.168 396.232 113.719C396.413 114.152 396.593 114.586 396.774 115.019C395.553 116.911 394.332 118.803 392.414 121.774C401.785 119.044 410.073 116.629 418.729 114.108C416.105 109.795 414.01 106.019 411.542 102.503C410.828 101.486 408.908 100.495 407.777 100.714C389.901 104.184 372.063 107.854 354.304 111.46C352.824 123.66 353.33 124.812 362.156 127.938ZM316.945 200.555C317.986 201.367 318.918 202.65 320.086 202.921C333.138 205.953 346.234 208.799 359.302 211.762C365.586 213.186 371.652 214.389 377.899 210.937C381.018 209.214 381.923 207.924 381.481 204.213C381.006 200.22 378.074 200.818 376.188 200.309C358.79 195.614 341.313 191.214 323.867 186.697C318.835 185.394 314.773 188.075 314.889 193.123C314.94 195.348 316.105 197.546 316.945 200.555ZM338.659 217.95C331.863 216.436 325.088 214.816 318.253 213.504C316.982 213.26 315.014 213.826 314.15 214.75C309.094 220.152 309.179 222.784 314.208 229.685C321.887 227.874 329.627 226.262 337.551 229.016C340.665 230.098 343.957 230.708 347.203 231.362C351.385 232.204 358.088 226.029 357.467 221.978C351.488 220.656 345.496 219.331 338.659 217.95Z" fill="white"/>
<path d="M367.515 427C367.516 435.474 367.516 443.448 367.516 451.711C360.463 451.711 353.74 451.711 346.628 451.711C346.628 440.507 346.673 429.37 346.606 418.233C346.579 413.906 346.466 409.566 346.094 405.257C345.545 398.906 342.013 395.711 336.137 395.882C330.217 396.054 326.123 399.89 326.05 406.006C325.881 420.164 325.978 434.326 325.967 448.487C325.966 449.465 325.967 450.442 325.967 451.711C319.02 451.711 312.286 451.711 304.995 451.711C304.995 438.507 305.02 425.245 304.975 411.982C304.966 409.327 304.935 406.631 304.484 404.028C303.589 398.864 300.387 396.229 295.251 396.005C290.275 395.789 286.385 398.309 285.11 403.105C284.394 405.798 284.151 408.682 284.131 411.483C284.035 424.792 284.088 438.103 284.088 451.708C277.182 451.708 270.462 451.708 263.504 451.708C263.504 428.14 263.504 404.703 263.504 380.88C270.199 380.88 276.936 380.88 283.894 380.88C284.036 382.742 284.182 384.66 284.38 387.266C290.365 381.698 296.888 378.633 304.74 378.812C312.354 378.986 319.211 380.826 324.315 386.95C334.037 379.356 344.457 376.32 356.152 380.895C362.925 383.544 366.983 388.473 367.12 396.021C367.305 406.179 367.388 416.34 367.515 427Z" fill="white"/>
<path d="M655.212 446.932C655.212 448.749 655.212 450.073 655.212 451.699C647.307 451.699 639.535 451.699 631.393 451.699C631.393 419.868 631.393 387.82 631.393 355.153C633.768 355.153 636.204 355.126 638.639 355.157C654.789 355.36 670.981 354.928 687.079 355.95C707.532 357.249 715.614 374.664 713.546 391.73C711.485 408.738 699.459 419.089 681.51 419.929C672.913 420.332 664.281 419.999 655.212 419.999C655.212 429.511 655.212 437.975 655.212 446.932ZM688.931 394.08C691.555 383.974 688.764 375.792 681.052 374.46C672.7 373.018 664.062 373.231 655.455 372.717C655.455 383.255 655.455 392.645 655.455 401.973C663.316 401.973 670.942 402.353 678.504 401.826C682.84 401.525 686.771 399.319 688.931 394.08Z" fill="white"/>
<path d="M386.162 386C386.162 375.552 386.162 365.603 386.162 355.401C393.197 355.401 399.764 355.401 406.809 355.401C406.809 365.631 406.809 375.674 406.809 386.073C422.671 373.816 439.751 377.716 447.944 387.746C451.876 392.56 454.863 398.754 456.372 404.799C458.728 414.233 457.769 423.944 454.732 433.334C448.181 453.589 422.817 461.454 406.029 445.657C406.029 447.886 406.029 449.73 406.029 451.79C399.307 451.79 393.033 451.79 386.162 451.79C386.162 430 386.162 408.25 386.162 386ZM415.124 436.801C425.645 440.608 433.459 437.068 435.471 426.31C436.721 419.622 436.6 412.391 435.57 405.636C434.381 397.845 429.392 394.171 422.737 394.005C415.394 393.822 410.279 397.434 407.819 404.825C405.028 413.209 405.528 421.629 408.826 429.689C409.871 432.241 412.579 434.112 415.124 436.801Z" fill="white"/>
<path d="M101.008 395C101.008 381.551 101.008 368.602 101.008 355.401C108.025 355.401 114.626 355.401 121.921 355.401C121.921 365.738 121.921 376.232 121.921 387.851C129.123 381.548 136.196 378.263 144.843 378.936C156.376 379.832 164.672 387.541 164.894 399.046C165.23 416.504 164.982 433.973 164.982 451.72C158.226 451.72 151.489 451.72 144.205 451.72C144.205 445.899 144.229 440.126 144.199 434.353C144.154 425.529 144.264 416.697 143.941 407.881C143.705 401.417 139.535 396.908 134.162 396.501C128.416 396.065 123.53 399.943 122.834 406.652C122.065 414.073 122.147 421.589 122.028 429.067C121.91 436.531 122.002 443.999 122.002 451.732C115.034 451.732 108.297 451.732 101.008 451.732C101.008 433.004 101.008 414.252 101.008 395Z" fill="white"/>
<path d="M553.019 419.074C560.396 410.347 570.702 409.179 580.555 407.008C583.95 406.26 587.393 405.734 590.725 405.124C591.96 398.191 590.625 394.383 586.626 393.055C581.231 391.263 575.912 393.541 572.775 398.762C572.216 399.692 570.913 400.727 569.925 400.757C563.792 400.939 557.651 400.849 551.513 400.849C551.635 390.143 557.22 383.039 568.499 380.288C578.821 377.77 589.253 377.826 599.388 381.741C608.053 385.088 611.991 390.742 612.001 399.952C612.016 413.438 611.944 426.925 612.044 440.41C612.073 444.194 612.575 447.975 612.867 451.862C606.906 451.862 600.448 451.862 593.717 451.862C593.532 450.154 593.359 448.555 593.114 446.293C591.35 447.374 589.898 448.272 588.438 449.156C578.776 455.011 568.698 456.041 558.585 450.782C547.976 445.265 544.172 428.906 553.019 419.074ZM586.825 419.179C582.627 420.712 578.335 422.031 574.256 423.834C569.716 425.841 567.82 429.623 569.219 433.396C570.818 437.707 574.51 438.896 578.523 438.235C580.998 437.828 583.58 436.558 585.567 434.985C590.956 430.719 591.536 424.659 591.101 418.022C589.773 418.389 588.7 418.685 586.825 419.179Z" fill="white"/>
<path d="M203.995 400.572C197.155 400.777 190.68 400.777 184.233 400.777C183.23 392.785 187.577 385.266 195.887 382.03C208.473 377.129 221.297 377.216 233.707 382.647C240.412 385.581 244.264 390.974 244.227 398.725C244.16 412.871 244.167 427.019 244.287 441.165C244.317 444.614 244.904 448.058 245.256 451.736C239.11 451.736 232.587 451.736 225.961 451.736C225.877 450.007 225.797 448.36 225.686 446.064C223.949 447.148 222.481 448.064 221.014 448.979C212.812 454.094 204.083 455.635 194.821 452.502C186.685 449.75 182.099 443.985 180.744 435.465C179.246 426.048 183.074 418.631 190.825 414.428C197.511 410.802 205.357 409.251 212.773 407.06C216.231 406.038 219.883 405.671 223.332 405.028C224.137 397.41 222.582 393.949 218.112 392.915C211.625 391.414 207.122 393.855 203.995 400.572ZM213.544 421.001C210.398 422.426 206.79 423.309 204.264 425.461C202.485 426.977 201.032 430.488 201.533 432.613C202.038 434.754 204.944 437.424 207.148 437.799C210.08 438.297 213.805 437.557 216.389 436.011C223.009 432.05 223.833 425.314 223.572 417.824C220.223 418.934 217.274 419.913 213.544 421.001Z" fill="white"/>
</g>
<defs>
<clipPath id="clip0_15_9">
<rect width="792" height="454" fill="white"/>
</clipPath>
</defs>
</svg>
