<svg version="1.1" id="Layer_1" xmlns="http://www.w3.org/2000/svg" xmlns:xlink="http://www.w3.org/1999/xlink" x="0px" y="0px"
	 width="100%" viewBox="0 0 792 454" enable-background="new 0 0 792 454" xml:space="preserve">
<path fill="#FEFEFE" opacity="1.000000" stroke="none" 
	d="
M0.999998,393.000000 
	C1.000000,262.406494 1.000000,131.813004 1.000000,1.000000 
	C127.355896,1.000000 253.711914,1.000000 380.398865,1.384206 
	C350.847229,5.162997 323.623383,15.531305 299.816956,33.926571 
	C245.046646,76.247696 224.978134,144.949982 247.988907,210.330414 
	C252.970200,224.483719 260.082733,237.524368 269.455139,249.750793 
	C274.270355,244.858917 278.607208,239.989563 283.449188,235.688889 
	C286.968628,232.562958 288.045654,229.503296 285.539520,225.454758 
	C281.492279,218.916580 282.279144,213.135468 288.184875,208.141022 
	C291.904602,204.995285 291.843231,201.490509 290.121368,197.154312 
	C289.075653,194.520844 288.281921,190.526443 289.538513,188.457321 
	C295.052979,179.377029 297.296783,169.995529 295.226501,159.511887 
	C294.652557,156.605484 295.413666,153.405151 294.682098,150.566498 
	C293.183289,144.750763 295.623260,142.028870 300.968719,140.843719 
	C308.650482,139.140579 313.520325,134.843704 313.851959,126.506805 
	C314.167145,118.583321 318.266052,113.754211 325.899597,111.901192 
	C328.855927,111.183548 329.117004,109.239731 328.868378,106.660774 
	C328.408264,101.887924 328.191772,97.091591 327.867706,92.213661 
	C358.570587,85.999428 388.844971,79.951744 419.062683,73.633171 
	C422.105103,72.996994 423.101196,73.986679 424.394745,76.207573 
	C428.152924,82.659958 431.947510,89.105370 436.101074,95.303360 
	C437.166595,96.893303 439.553772,98.372017 441.432556,98.504906 
	C448.568756,99.009720 455.747803,98.877556 462.905396,99.134178 
	C464.668701,99.197395 466.595703,99.471733 468.131989,100.262192 
	C474.768677,103.676888 481.362701,107.192764 487.793274,110.976013 
	C489.230865,111.821793 490.548340,113.771729 490.889771,115.426163 
	C492.434387,122.910263 493.834167,130.442276 494.791077,138.019562 
	C495.112549,140.565018 493.968140,143.295593 493.493713,145.941559 
	C492.904907,145.968597 492.316101,145.995621 491.727325,146.022644 
	C497.205658,153.858963 502.684021,161.695282 508.274475,169.691925 
	C506.310852,171.155228 504.600586,172.450287 502.869171,173.716415 
	C494.732117,179.666702 494.092133,179.885635 497.402924,189.410629 
	C499.919495,196.650711 498.210327,200.959076 492.239716,205.129333 
	C486.143250,209.387512 485.426880,216.808960 489.993073,222.983032 
	C498.709045,234.768112 508.096100,245.924377 521.172913,253.876099 
	C523.845215,250.102783 526.773071,246.293533 529.360352,242.265472 
	C559.134460,195.910950 564.000793,146.685791 542.527649,96.301292 
	C521.794312,47.652851 484.150818,17.468737 432.590515,5.050404 
	C425.795959,3.413929 418.866821,2.336399 412.000000,0.999999 
	C538.930664,1.000000 665.861389,1.000000 793.000000,1.000000 
	C793.000000,137.689240 793.000000,274.378601 792.640381,411.360535 
	C792.193909,410.995392 792.111511,410.337097 792.019531,409.680084 
	C789.800171,393.829102 780.148926,382.215271 766.667419,379.171021 
	C750.262390,375.466614 734.938416,380.366608 727.297668,393.383789 
	C723.662476,399.576843 721.416565,407.215454 720.757446,414.402435 
	C719.050354,433.016510 727.619324,449.550446 746.687988,453.543091 
	C747.523743,453.718079 748.232239,454.500519 749.000000,455.000000 
	C668.310669,455.000000 587.621399,455.000000 506.664917,454.645386 
	C520.596436,453.347443 530.812988,446.226868 538.267639,433.939087 
	C532.867676,431.136719 527.804993,428.509399 522.762817,425.892731 
	C515.004150,439.271027 507.342316,439.504364 498.701813,437.643097 
	C492.341492,436.273010 488.304413,429.111298 488.420959,420.859314 
	C505.149506,420.859314 521.891724,420.859314 539.361633,420.859314 
	C538.837524,415.962524 538.640076,411.518555 537.847290,407.183472 
	C535.142273,392.390991 525.330750,381.700439 512.363220,379.086212 
	C495.646698,375.716156 481.496613,380.764618 473.284241,393.332764 
	C466.655518,403.477295 465.537659,414.814087 467.573151,426.406860 
	C470.069702,440.625732 478.117096,450.070343 492.617889,453.366150 
	C493.807587,453.636566 494.875519,454.442780 496.000000,455.000000 
	C348.644012,455.000000 201.288055,455.000000 53.639652,454.640381 
	C69.148392,452.321381 80.564629,443.897186 88.927063,430.264435 
	C82.522217,426.995941 76.363525,423.853088 70.015594,420.613647 
	C68.745483,422.481323 67.702515,424.142853 66.534920,425.711639 
	C57.464569,437.898499 39.882378,437.783661 31.176641,425.498505 
	C22.980896,413.933014 22.977606,393.152405 31.169674,381.499084 
	C38.160236,371.554901 51.928482,369.237885 61.466515,376.781342 
	C64.750671,379.378723 67.238892,382.982483 70.330872,386.391327 
	C76.135117,383.549713 82.198120,380.581451 88.413734,377.538452 
	C84.837318,370.169830 79.975174,364.331726 73.489189,360.026672 
	C47.649792,342.875763 14.061453,354.924286 3.933336,384.874969 
	C3.011129,387.602112 1.980354,390.292542 0.999998,393.000000 
M467.641632,188.313110 
	C469.095825,188.390961 470.550018,188.468826 473.317505,188.616989 
	C471.126373,190.678970 470.221252,191.933472 468.997314,192.617661 
	C460.638031,197.290512 458.266663,203.958862 462.012756,212.777542 
	C463.423004,216.097351 461.725647,217.713882 459.034485,219.434631 
	C442.388733,230.078003 425.474915,240.366440 409.438782,251.871948 
	C401.277344,257.727570 393.592957,256.097656 384.670898,254.898331 
	C391.354858,246.835526 397.649780,239.346375 403.775909,231.721634 
	C404.553223,230.754196 404.446594,229.076553 404.862885,227.223068 
	C381.341553,252.450592 358.614655,276.826050 335.874359,301.215851 
	C337.002319,301.686279 338.751038,302.216003 340.297028,303.100159 
	C344.009857,305.223389 346.603210,304.503601 349.633972,301.275665 
	C357.613892,292.776672 366.574158,285.162842 374.199707,276.376892 
	C381.067535,268.463989 388.294098,264.166412 399.064972,266.881989 
	C402.662781,267.789093 405.867249,268.324585 408.708160,271.115387 
	C419.869598,282.080017 431.250946,292.822144 442.648499,303.542847 
	C443.660309,304.494598 445.524506,305.370880 446.742462,305.110626 
	C449.880890,304.440002 452.878754,303.111786 456.324249,301.909760 
	C441.862701,288.150208 427.910034,274.874847 413.714264,261.368195 
	C430.535187,250.464020 447.027893,239.772614 463.661163,228.990097 
	C476.274170,244.687027 486.880096,261.584534 503.564575,271.047516 
	C506.340393,268.774200 508.872620,266.700348 512.028564,264.115692 
	C496.121765,254.952911 486.372345,240.551849 475.600281,227.129532 
	C474.673279,225.974472 472.853088,224.189606 473.163422,223.599411 
	C475.841583,218.506104 472.694855,213.968201 471.999237,209.289551 
	C471.502136,205.946198 471.771271,203.500336 474.816681,201.751907 
	C483.070648,197.013092 485.471313,190.401291 481.017242,181.765289 
	C479.946198,179.688629 478.442841,177.834961 476.935730,175.574982 
	C480.361481,173.043488 484.722198,169.821075 489.206299,166.507492 
	C483.424683,158.335922 477.793762,150.377365 471.827820,141.945282 
	C481.020111,139.521561 480.964233,133.065445 478.748718,125.738846 
	C478.508636,124.944946 478.570465,124.019058 478.191223,123.317024 
	C477.547516,122.125572 476.909912,120.652740 475.841675,120.013649 
	C468.578644,115.668358 461.344757,111.618843 452.200073,112.481133 
	C445.949036,113.070564 439.548553,112.436958 433.249817,111.922729 
	C431.514069,111.781029 429.306915,110.505219 428.340942,109.063232 
	C424.556396,103.413643 421.056244,97.560249 417.713318,91.634262 
	C416.269867,89.075401 414.848480,88.271500 411.809204,88.951706 
	C401.753876,91.202164 391.601166,93.013336 381.503906,95.081573 
	C368.537201,97.737564 355.588043,100.479248 343.064056,103.093666 
	C343.064056,107.568794 342.823761,111.566093 343.148224,115.517021 
	C343.365906,118.167313 342.605194,119.650383 340.091705,120.253632 
	C329.857483,122.709892 325.412262,129.669891 324.821838,139.714615 
	C324.745880,141.006744 324.518280,142.468414 323.835327,143.505386 
	C322.761566,145.135727 321.518677,147.083420 319.864960,147.834137 
	C308.267334,153.099045 308.236328,153.011017 309.484283,166.113235 
	C309.705322,168.433823 310.189575,170.811386 309.899811,173.079269 
	C309.469666,176.445557 309.306152,180.312271 307.522797,182.946030 
	C303.294006,189.191391 302.625702,195.199432 306.105011,201.799088 
	C307.469818,204.387955 307.550171,206.947083 305.112061,208.963989 
	C297.612915,215.167648 297.364502,222.366455 302.013855,230.305588 
	C302.096313,230.446365 302.109070,230.631882 302.202728,230.761612 
	C304.178436,233.498276 303.051849,235.348969 300.866913,237.497177 
	C293.213623,245.021912 285.779785,252.769852 278.186981,260.510132 
	C280.736786,263.246765 282.972321,265.646057 284.915497,267.731598 
	C293.525421,259.354828 301.858398,251.207321 310.254700,243.125656 
	C311.404480,242.018997 312.758514,240.696518 314.207458,240.400116 
	C321.968140,238.812500 329.698822,236.709793 337.676117,239.906769 
	C341.177185,241.309875 345.031525,241.956497 348.788757,242.536301 
	C350.385284,242.782684 352.439636,242.437088 353.783783,241.576324 
	C367.235870,232.962082 378.136902,220.507797 394.644104,215.442612 
	C388.728149,203.670944 393.363647,196.197662 403.689423,191.217682 
	C406.499573,189.862381 406.767578,187.941452 405.482422,185.612503 
	C401.754669,178.857025 402.132904,172.344086 405.785553,165.629501 
	C407.421814,162.621597 407.916046,159.008575 409.414368,155.904724 
	C410.761017,153.115158 410.190735,151.517792 407.888519,149.576614 
	C401.965332,144.582260 396.299194,139.283051 389.880096,133.522125 
	C400.221436,130.510620 409.647888,127.610222 419.168915,125.063240 
	C423.453522,123.917076 427.907715,123.001495 432.318909,122.823792 
	C439.464661,122.535912 446.678284,122.527649 453.785339,123.211449 
	C458.050629,123.621834 462.332306,125.196609 466.301361,126.942200 
	C469.658447,128.418640 469.585144,131.098755 466.490631,133.214752 
	C460.598450,137.243759 454.608429,141.129303 448.676849,145.101074 
	C441.601959,149.838455 434.545807,154.603836 427.481537,159.357071 
	C439.337158,157.543854 450.861267,155.123215 462.407837,152.814621 
	C463.744720,152.547302 465.899536,152.337128 466.491913,153.064316 
	C469.351288,156.574448 471.805603,160.414581 474.436066,164.184219 
	C462.661377,172.779312 451.380035,181.014282 440.098694,189.249252 
	C440.235565,189.520599 440.372406,189.791931 440.509277,190.063278 
	C449.266907,189.484375 458.024567,188.905457 467.641632,188.313110 
M367.514526,426.500275 
	C367.387695,416.340271 367.304413,406.179443 367.119659,396.020508 
	C366.982391,388.472687 362.925049,383.544067 356.152069,380.894592 
	C344.456787,376.319550 334.036957,379.356415 324.314392,386.949707 
	C319.210541,380.826050 312.353485,378.985504 304.740112,378.812103 
	C296.887512,378.633270 290.365356,381.698456 284.379852,387.265961 
	C284.181580,384.660309 284.035583,382.741882 283.893890,380.879700 
	C276.936371,380.879700 270.199249,380.879700 263.503784,380.879700 
	C263.503784,404.702911 263.503784,428.140198 263.503784,451.708313 
	C270.462067,451.708313 277.181396,451.708313 284.087738,451.708313 
	C284.087738,438.102753 284.034393,424.792236 284.130859,411.482788 
	C284.151154,408.681824 284.394348,405.797943 285.110046,403.105103 
	C286.384644,398.309418 290.274384,395.788666 295.251007,396.005310 
	C300.386963,396.228882 303.589264,398.864319 304.484009,404.028137 
	C304.934998,406.630920 304.965454,409.327484 304.974548,411.982361 
	C305.020020,425.244629 304.995331,438.507141 304.995331,451.711395 
	C312.286224,451.711395 319.020081,451.711395 325.966431,451.711395 
	C325.966431,450.441833 325.965729,449.464539 325.966492,448.487244 
	C325.977448,434.326477 325.880737,420.164429 326.050140,406.005554 
	C326.123322,399.889984 330.217316,396.054108 336.136810,395.881775 
	C342.013184,395.710663 345.545135,398.905731 346.093567,405.257263 
	C346.465576,409.565674 346.579102,413.905731 346.605438,418.232880 
	C346.673157,429.369751 346.628082,440.507324 346.628082,451.710815 
	C353.740326,451.710815 360.462433,451.710815 367.515442,451.710815 
	C367.515442,443.447754 367.515442,435.474030 367.514526,426.500275 
M655.212402,446.438293 
	C655.212402,437.974640 655.212402,429.510956 655.212402,419.998505 
	C664.281372,419.998505 672.913086,420.331512 681.510437,419.929230 
	C699.459412,419.089417 711.485413,408.738159 713.546387,391.729767 
	C715.614319,374.663879 707.531982,357.249023 687.079102,355.950195 
	C670.980530,354.927917 654.789368,355.360352 638.639221,355.157104 
	C636.203735,355.126434 633.767639,355.152832 631.392578,355.152832 
	C631.392578,387.820038 631.392578,419.867889 631.392578,451.699463 
	C639.535461,451.699463 647.306885,451.699463 655.211548,451.699463 
	C655.211548,450.073364 655.211548,448.749359 655.212402,446.438293 
M386.161499,386.499939 
	C386.161499,408.250153 386.161499,430.000366 386.161499,451.789612 
	C393.033112,451.789612 399.306915,451.789612 406.028503,451.789612 
	C406.028503,449.729889 406.028503,447.886261 406.028503,445.657379 
	C422.817322,461.453827 448.180969,453.589142 454.732086,433.333527 
	C457.768738,423.944427 458.727692,414.232910 456.372162,404.798828 
	C454.862823,398.753876 451.875824,392.559814 447.943604,387.745728 
	C439.750885,377.715729 422.670441,373.816498 406.808685,386.073364 
	C406.808685,375.674042 406.808685,365.630951 406.808685,355.401245 
	C399.764282,355.401245 393.196594,355.401245 386.161499,355.401245 
	C386.161499,365.603302 386.161499,375.551575 386.161499,386.499939 
M101.008118,395.500000 
	C101.008118,414.251892 101.008118,433.003815 101.008118,451.732361 
	C108.297485,451.732361 115.034241,451.732361 122.002457,451.732361 
	C122.002457,443.998627 121.910042,436.530945 122.028427,429.066650 
	C122.147018,421.589233 122.065292,414.072601 122.834549,406.652252 
	C123.530083,399.943024 128.416443,396.065491 134.162338,396.501007 
	C139.534882,396.908203 143.705093,401.416565 143.941452,407.881287 
	C144.263748,416.696777 144.153946,425.528534 144.199158,434.353485 
	C144.228745,440.126221 144.204742,445.899261 144.204742,451.720032 
	C151.488617,451.720032 158.226501,451.720032 164.981750,451.720032 
	C164.981750,433.973236 165.230286,416.503967 164.893784,399.045959 
	C164.672028,387.541473 156.376358,379.832275 144.843262,378.935608 
	C136.196198,378.263336 129.122787,381.548492 121.920837,387.851288 
	C121.920837,376.232300 121.920837,365.738464 121.920837,355.401001 
	C114.626274,355.401001 108.024872,355.401001 101.008118,355.401001 
	C101.008118,368.602203 101.008118,381.551117 101.008118,395.500000 
M552.797668,419.359161 
	C544.172180,428.906158 547.976379,445.265411 558.585327,450.782349 
	C568.697876,456.041168 578.776123,455.010773 588.438477,449.156464 
	C589.898071,448.272125 591.349670,447.374481 593.114380,446.293427 
	C593.359253,448.555206 593.532349,450.154022 593.717285,451.862366 
	C600.448181,451.862366 606.906555,451.862366 612.867493,451.862366 
	C612.574829,447.975372 612.072571,444.194275 612.044434,440.409607 
	C611.944153,426.924500 612.016235,413.438202 612.001282,399.952332 
	C611.991089,390.741669 608.052734,385.088165 599.388062,381.741211 
	C589.252747,377.826141 578.820984,377.769501 568.498779,380.287659 
	C557.219727,383.039276 551.634949,390.143036 551.513184,400.848541 
	C557.651123,400.848541 563.792236,400.939178 569.925232,400.756683 
	C570.913147,400.727325 572.216309,399.692017 572.775146,398.762054 
	C575.912476,393.541168 581.231445,391.263184 586.626282,393.055084 
	C590.624817,394.383179 591.960449,398.191437 590.724670,405.123810 
	C587.393433,405.734406 583.949707,406.259766 580.555115,407.007812 
	C570.701843,409.179138 560.396240,410.347412 552.797668,419.359161 
M204.360184,400.367554 
	C207.121429,393.854797 211.624527,391.414459 218.112137,392.915039 
	C222.582352,393.949005 224.136429,397.410461 223.331482,405.027954 
	C219.882660,405.670593 216.230804,406.037994 212.772415,407.059967 
	C205.357254,409.251251 197.511383,410.801971 190.824783,414.427704 
	C183.073700,418.630615 179.246231,426.048492 180.743896,435.464691 
	C182.099075,443.984985 186.684647,449.749512 194.820801,452.501526 
	C204.083405,455.634583 212.812256,454.094391 221.013535,448.979095 
	C222.481232,448.063629 223.948792,447.148010 225.685883,446.064362 
	C225.797150,448.360321 225.876953,450.006836 225.960770,451.736450 
	C232.587036,451.736450 239.109879,451.736450 245.256348,451.736450 
	C244.903595,448.058228 244.316650,444.613831 244.287384,441.164764 
	C244.167374,427.018921 244.159882,412.871399 244.227386,398.725067 
	C244.264374,390.973907 240.411682,385.580780 233.707291,382.646729 
	C221.297241,377.215668 208.472610,377.129272 195.887405,382.029724 
	C187.577057,385.265594 183.229874,392.785187 184.233185,400.776733 
	C190.680130,400.776733 197.154922,400.776733 204.360184,400.367554 
z"/>
<path fill="#010101" opacity="1.000000" stroke="none" 
	d="
M411.531342,0.999999 
	C418.866821,2.336399 425.795959,3.413929 432.590515,5.050404 
	C484.150818,17.468737 521.794312,47.652851 542.527649,96.301292 
	C564.000793,146.685791 559.134460,195.910950 529.360352,242.265472 
	C526.773071,246.293533 523.845215,250.102783 521.172913,253.876099 
	C508.096100,245.924377 498.709045,234.768112 489.993073,222.983032 
	C485.426880,216.808960 486.143250,209.387512 492.239716,205.129333 
	C498.210327,200.959076 499.919495,196.650711 497.402924,189.410629 
	C494.092133,179.885635 494.732117,179.666702 502.869171,173.716415 
	C504.600586,172.450287 506.310852,171.155228 508.274475,169.691925 
	C502.684021,161.695282 497.205658,153.858963 491.727325,146.022644 
	C492.316101,145.995621 492.904907,145.968597 493.493713,145.941559 
	C493.968140,143.295593 495.112549,140.565018 494.791077,138.019562 
	C493.834167,130.442276 492.434387,122.910263 490.889771,115.426163 
	C490.548340,113.771729 489.230865,111.821793 487.793274,110.976013 
	C481.362701,107.192764 474.768677,103.676888 468.131989,100.262192 
	C466.595703,99.471733 464.668701,99.197395 462.905396,99.134178 
	C455.747803,98.877556 448.568756,99.009720 441.432556,98.504906 
	C439.553772,98.372017 437.166595,96.893303 436.101074,95.303360 
	C431.947510,89.105370 428.152924,82.659958 424.394745,76.207573 
	C423.101196,73.986679 422.105103,72.996994 419.062683,73.633171 
	C388.844971,79.951744 358.570587,85.999428 327.867706,92.213661 
	C328.191772,97.091591 328.408264,101.887924 328.868378,106.660774 
	C329.117004,109.239731 328.855927,111.183548 325.899597,111.901192 
	C318.266052,113.754211 314.167145,118.583321 313.851959,126.506805 
	C313.520325,134.843704 308.650482,139.140579 300.968719,140.843719 
	C295.623260,142.028870 293.183289,144.750763 294.682098,150.566498 
	C295.413666,153.405151 294.652557,156.605484 295.226501,159.511887 
	C297.296783,169.995529 295.052979,179.377029 289.538513,188.457321 
	C288.281921,190.526443 289.075653,194.520844 290.121368,197.154312 
	C291.843231,201.490509 291.904602,204.995285 288.184875,208.141022 
	C282.279144,213.135468 281.492279,218.916580 285.539520,225.454758 
	C288.045654,229.503296 286.968628,232.562958 283.449188,235.688889 
	C278.607208,239.989563 274.270355,244.858917 269.455139,249.750793 
	C260.082733,237.524368 252.970200,224.483719 247.988907,210.330414 
	C224.978134,144.949982 245.046646,76.247696 299.816956,33.926571 
	C323.623383,15.531305 350.847229,5.162997 380.864868,1.384206 
	C391.020905,1.000000 401.041779,1.000000 411.531342,0.999999 
z"/>
<path fill="#030303" opacity="1.000000" stroke="none" 
	d="
M0.999998,393.468536 
	C1.980354,390.292542 3.011129,387.602112 3.933336,384.874969 
	C14.061453,354.924286 47.649792,342.875763 73.489189,360.026672 
	C79.975174,364.331726 84.837318,370.169830 88.413734,377.538452 
	C82.198120,380.581451 76.135117,383.549713 70.330872,386.391327 
	C67.238892,382.982483 64.750671,379.378723 61.466515,376.781342 
	C51.928482,369.237885 38.160236,371.554901 31.169674,381.499084 
	C22.977606,393.152405 22.980896,413.933014 31.176641,425.498505 
	C39.882378,437.783661 57.464569,437.898499 66.534920,425.711639 
	C67.702515,424.142853 68.745483,422.481323 70.015594,420.613647 
	C76.363525,423.853088 82.522217,426.995941 88.927063,430.264435 
	C80.564629,443.897186 69.148392,452.321381 53.173611,454.640381 
	C48.310745,455.000000 43.621487,455.000000 38.325531,454.654541 
	C20.658501,450.203857 9.276886,439.942108 3.925003,423.141327 
	C2.953928,420.092957 1.975192,417.047058 0.999998,414.000000 
	C1.000000,407.312347 1.000000,400.624725 0.999998,393.468536 
z"/>
<path fill="#040404" opacity="1.000000" stroke="none" 
	d="
M749.460632,455.000000 
	C748.232239,454.500519 747.523743,453.718079 746.687988,453.543091 
	C727.619324,449.550446 719.050354,433.016510 720.757446,414.402435 
	C721.416565,407.215454 723.662476,399.576843 727.297668,393.383789 
	C734.938416,380.366608 750.262390,375.466614 766.667419,379.171021 
	C780.148926,382.215271 789.800171,393.829102 792.019531,409.680084 
	C792.111511,410.337097 792.193909,410.995392 792.640381,411.826538 
	C793.000000,414.700012 793.000000,417.400024 792.537598,420.468445 
	C775.494751,420.836823 758.914307,420.836823 742.369995,420.836823 
	C741.739563,428.498993 745.562195,435.021912 751.844299,437.461761 
	C760.693298,440.898560 768.177368,437.468414 776.664246,426.015137 
	C781.340576,428.404388 786.043152,430.792450 790.723267,433.223511 
	C791.133911,433.436798 791.397827,433.932251 791.721008,434.286865 
	C785.690247,443.989532 780.313171,448.624542 770.604126,452.171051 
	C767.475708,453.313843 764.205383,454.068024 761.000000,455.000000 
	C757.307068,455.000000 753.614197,455.000000 749.460632,455.000000 
M750.623718,407.539886 
	C757.350647,407.539886 764.077515,407.539886 770.823486,407.539886 
	C770.350586,398.388123 765.197449,393.384308 756.952209,393.494324 
	C748.903198,393.601654 742.994202,399.346832 742.733887,407.539948 
	C745.050659,407.539948 747.362000,407.539948 750.623718,407.539886 
z"/>
<path fill="#040404" opacity="1.000000" stroke="none" 
	d="
M496.454102,455.000000 
	C494.875519,454.442780 493.807587,453.636566 492.617889,453.366150 
	C478.117096,450.070343 470.069702,440.625732 467.573151,426.406860 
	C465.537659,414.814087 466.655518,403.477295 473.284241,393.332764 
	C481.496613,380.764618 495.646698,375.716156 512.363220,379.086212 
	C525.330750,381.700439 535.142273,392.390991 537.847290,407.183472 
	C538.640076,411.518555 538.837524,415.962524 539.361633,420.859314 
	C521.891724,420.859314 505.149506,420.859314 488.420959,420.859314 
	C488.304413,429.111298 492.341492,436.273010 498.701813,437.643097 
	C507.342316,439.504364 515.004150,439.271027 522.762817,425.892731 
	C527.804993,428.509399 532.867676,431.136719 538.267639,433.939087 
	C530.812988,446.226868 520.596436,453.347443 506.198853,454.645386 
	C502.969391,455.000000 499.938812,455.000000 496.454102,455.000000 
M516.748901,407.257324 
	C517.302612,399.329926 512.250305,393.851929 504.062622,393.502106 
	C495.716431,393.145569 489.397949,398.873474 489.045441,407.519836 
	C498.003845,407.519836 506.952087,407.519836 516.748901,407.257324 
z"/>
<path fill="#FCFCFC" opacity="1.000000" stroke="none" 
	d="
M761.468628,455.000000 
	C764.205383,454.068024 767.475708,453.313843 770.604126,452.171051 
	C780.313171,448.624542 785.690247,443.989532 791.721008,434.286865 
	C791.397827,433.932251 791.133911,433.436798 790.723267,433.223511 
	C786.043152,430.792450 781.340576,428.404388 776.664246,426.015137 
	C768.177368,437.468414 760.693298,440.898560 751.844299,437.461761 
	C745.562195,435.021912 741.739563,428.498993 742.369995,420.836823 
	C758.914307,420.836823 775.494751,420.836823 792.537598,420.918396 
	C793.000000,432.257660 793.000000,443.515350 793.000000,455.000000 
	C782.646851,455.000000 772.292114,455.000000 761.468628,455.000000 
z"/>
<path fill="#FCFCFC" opacity="1.000000" stroke="none" 
	d="
M0.999998,414.468658 
	C1.975192,417.047058 2.953928,420.092957 3.925003,423.141327 
	C9.276886,439.942108 20.658501,450.203857 37.859413,454.654541 
	C25.736261,455.000000 13.472522,455.000000 1.000000,455.000000 
	C1.000000,441.646484 1.000000,428.291901 0.999998,414.468658 
z"/>
<path fill="#050505" opacity="1.000000" stroke="none" 
	d="
M467.211914,188.319824 
	C458.024567,188.905457 449.266907,189.484375 440.509277,190.063278 
	C440.372406,189.791931 440.235565,189.520599 440.098694,189.249252 
	C451.380035,181.014282 462.661377,172.779312 474.436066,164.184219 
	C471.805603,160.414581 469.351288,156.574448 466.491913,153.064316 
	C465.899536,152.337128 463.744720,152.547302 462.407837,152.814621 
	C450.861267,155.123215 439.337158,157.543854 427.481537,159.357071 
	C434.545807,154.603836 441.601959,149.838455 448.676849,145.101074 
	C454.608429,141.129303 460.598450,137.243759 466.490631,133.214752 
	C469.585144,131.098755 469.658447,128.418640 466.301361,126.942200 
	C462.332306,125.196609 458.050629,123.621834 453.785339,123.211449 
	C446.678284,122.527649 439.464661,122.535912 432.318909,122.823792 
	C427.907715,123.001495 423.453522,123.917076 419.168915,125.063240 
	C409.647888,127.610222 400.221436,130.510620 389.880096,133.522125 
	C396.299194,139.283051 401.965332,144.582260 407.888519,149.576614 
	C410.190735,151.517792 410.761017,153.115158 409.414368,155.904724 
	C407.916046,159.008575 407.421814,162.621597 405.785553,165.629501 
	C402.132904,172.344086 401.754669,178.857025 405.482422,185.612503 
	C406.767578,187.941452 406.499573,189.862381 403.689423,191.217682 
	C393.363647,196.197662 388.728149,203.670944 394.644104,215.442612 
	C378.136902,220.507797 367.235870,232.962082 353.783783,241.576324 
	C352.439636,242.437088 350.385284,242.782684 348.788757,242.536301 
	C345.031525,241.956497 341.177185,241.309875 337.676117,239.906769 
	C329.698822,236.709793 321.968140,238.812500 314.207458,240.400116 
	C312.758514,240.696518 311.404480,242.018997 310.254700,243.125656 
	C301.858398,251.207321 293.525421,259.354828 284.915497,267.731598 
	C282.972321,265.646057 280.736786,263.246765 278.186981,260.510132 
	C285.779785,252.769852 293.213623,245.021912 300.866913,237.497177 
	C303.051849,235.348969 304.178436,233.498276 302.202728,230.761612 
	C302.109070,230.631882 302.096313,230.446365 302.013855,230.305588 
	C297.364502,222.366455 297.612915,215.167648 305.112061,208.963989 
	C307.550171,206.947083 307.469818,204.387955 306.105011,201.799088 
	C302.625702,195.199432 303.294006,189.191391 307.522797,182.946030 
	C309.306152,180.312271 309.469666,176.445557 309.899811,173.079269 
	C310.189575,170.811386 309.705322,168.433823 309.484283,166.113235 
	C308.236328,153.011017 308.267334,153.099045 319.864960,147.834137 
	C321.518677,147.083420 322.761566,145.135727 323.835327,143.505386 
	C324.518280,142.468414 324.745880,141.006744 324.821838,139.714615 
	C325.412262,129.669891 329.857483,122.709892 340.091705,120.253632 
	C342.605194,119.650383 343.365906,118.167313 343.148224,115.517021 
	C342.823761,111.566093 343.064056,107.568794 343.064056,103.093666 
	C355.588043,100.479248 368.537201,97.737564 381.503906,95.081573 
	C391.601166,93.013336 401.753876,91.202164 411.809204,88.951706 
	C414.848480,88.271500 416.269867,89.075401 417.713318,91.634262 
	C421.056244,97.560249 424.556396,103.413643 428.340942,109.063232 
	C429.306915,110.505219 431.514069,111.781029 433.249817,111.922729 
	C439.548553,112.436958 445.949036,113.070564 452.200073,112.481133 
	C461.344757,111.618843 468.578644,115.668358 475.841675,120.013649 
	C476.909912,120.652740 477.547516,122.125572 478.191223,123.317024 
	C478.570465,124.019058 478.508636,124.944946 478.748718,125.738846 
	C480.964233,133.065445 481.020111,139.521561 471.827820,141.945282 
	C477.793762,150.377365 483.424683,158.335922 489.206299,166.507492 
	C484.722198,169.821075 480.361481,173.043488 476.935730,175.574982 
	C478.442841,177.834961 479.946198,179.688629 481.017242,181.765289 
	C485.471313,190.401291 483.070648,197.013092 474.816681,201.751907 
	C471.771271,203.500336 471.502136,205.946198 471.999237,209.289551 
	C472.694855,213.968201 475.841583,218.506104 473.163422,223.599411 
	C472.853088,224.189606 474.673279,225.974472 475.600281,227.129532 
	C486.372345,240.551849 496.121765,254.952911 512.028564,264.115692 
	C508.872620,266.700348 506.340393,268.774200 503.564575,271.047516 
	C486.880096,261.584534 476.274170,244.687027 463.661163,228.990097 
	C447.027893,239.772614 430.535187,250.464020 413.714264,261.368195 
	C427.910034,274.874847 441.862701,288.150208 456.324249,301.909760 
	C452.878754,303.111786 449.880890,304.440002 446.742462,305.110626 
	C445.524506,305.370880 443.660309,304.494598 442.648499,303.542847 
	C431.250946,292.822144 419.869598,282.080017 408.708160,271.115387 
	C405.867249,268.324585 402.662781,267.789093 399.064972,266.881989 
	C388.294098,264.166412 381.067535,268.463989 374.199707,276.376892 
	C366.574158,285.162842 357.613892,292.776672 349.633972,301.275665 
	C346.603210,304.503601 344.009857,305.223389 340.297028,303.100159 
	C338.751038,302.216003 337.002319,301.686279 335.874359,301.215851 
	C358.614655,276.826050 381.341553,252.450592 404.862885,227.223068 
	C404.446594,229.076553 404.553223,230.754196 403.775909,231.721634 
	C397.649780,239.346375 391.354858,246.835526 384.670898,254.898331 
	C393.592957,256.097656 401.277344,257.727570 409.438782,251.871948 
	C425.474915,240.366440 442.388733,230.078003 459.034485,219.434631 
	C461.725647,217.713882 463.423004,216.097351 462.012756,212.777542 
	C458.266663,203.958862 460.638031,197.290512 468.997314,192.617661 
	C470.221252,191.933472 471.126373,190.678970 473.317505,188.616989 
	C470.550018,188.468826 469.095825,188.390961 467.211914,188.319824 
M390.788116,148.716446 
	C385.584473,142.924103 377.507355,139.674164 375.695099,131.044891 
	C367.397034,132.703796 359.801697,132.195557 352.790741,127.748436 
	C352.174164,127.357338 351.106384,126.965797 350.591858,127.233902 
	C344.352325,130.485168 335.833832,131.074020 335.233734,140.919754 
	C335.064728,143.692810 334.966370,145.292908 337.908356,146.703629 
	C350.139282,152.568542 362.322449,158.556320 374.289551,164.937073 
	C379.300079,167.608643 383.907654,167.572693 389.324127,166.622421 
	C395.001343,165.626373 395.908630,161.754242 397.482117,157.632736 
	C399.039948,153.552292 394.893372,153.270340 393.557800,151.145294 
	C393.045258,150.329803 392.126465,149.769638 390.788116,148.716446 
M355.347717,167.136963 
	C350.593475,164.771378 345.612946,162.766312 341.137207,159.957016 
	C334.154022,155.573868 327.393311,153.818420 319.891937,160.145920 
	C320.094727,163.233414 320.629303,167.199127 320.528107,171.148529 
	C320.446808,174.321030 321.871765,175.362396 324.640167,176.068634 
	C342.262756,180.564224 359.966431,184.804993 377.395081,189.967957 
	C384.739594,192.143677 389.266022,189.420395 393.920807,184.669022 
	C392.895844,181.977341 391.924683,179.426941 390.708588,176.233276 
	C382.720032,181.004990 376.067627,177.993286 369.381744,174.143661 
	C365.074432,171.663589 360.468170,169.702698 355.347717,167.136963 
M362.155823,127.938438 
	C374.846893,129.707718 384.936768,125.409416 392.600555,115.124229 
	C393.257172,114.243004 394.995880,114.168076 396.231934,113.718582 
	C396.412659,114.152107 396.593414,114.585632 396.774170,115.019165 
	C395.553040,116.911072 394.331909,118.802979 392.414307,121.773911 
	C401.785095,119.043930 410.072815,116.629478 418.729126,114.107643 
	C416.105377,109.795242 414.009644,106.018913 411.542297,102.503426 
	C410.828430,101.486267 408.907471,100.494820 407.777222,100.714233 
	C389.900787,104.184425 372.063080,107.854149 354.304108,111.460365 
	C352.824005,123.659576 353.330231,124.812035 362.155823,127.938438 
M316.945129,200.554611 
	C317.986328,201.367462 318.918427,202.650070 320.085510,202.921219 
	C333.137848,205.953461 346.233521,208.798630 359.302246,211.761490 
	C365.585632,213.186020 371.652222,214.388977 377.899323,210.937119 
	C381.017975,209.213882 381.923309,207.923477 381.481293,204.212753 
	C381.005615,200.219864 378.074127,200.818268 376.188171,200.309296 
	C358.790192,195.614212 341.312653,191.214432 323.866608,186.696533 
	C318.834839,185.393478 314.772675,188.074799 314.888550,193.123383 
	C314.939606,195.347565 316.105255,197.546173 316.945129,200.554611 
M338.659302,217.950180 
	C331.863434,216.436432 325.087982,214.816299 318.253387,213.504395 
	C316.982269,213.260376 315.014099,213.826035 314.149567,214.749802 
	C309.094238,220.151642 309.179138,222.783691 314.207611,229.684952 
	C321.886963,227.873657 329.626801,226.261536 337.550781,229.015823 
	C340.664856,230.098236 343.957092,230.708115 347.202728,231.361786 
	C351.384857,232.204056 358.087524,226.029373 357.467346,221.977875 
	C351.488159,220.655991 345.496460,219.331345 338.659302,217.950180 
z"/>
<path fill="#030303" opacity="1.000000" stroke="none" 
	d="
M367.514984,427.000305 
	C367.515442,435.474030 367.515442,443.447754 367.515442,451.710815 
	C360.462433,451.710815 353.740326,451.710815 346.628082,451.710815 
	C346.628082,440.507324 346.673157,429.369751 346.605438,418.232880 
	C346.579102,413.905731 346.465576,409.565674 346.093567,405.257263 
	C345.545135,398.905731 342.013184,395.710663 336.136810,395.881775 
	C330.217316,396.054108 326.123322,399.889984 326.050140,406.005554 
	C325.880737,420.164429 325.977448,434.326477 325.966492,448.487244 
	C325.965729,449.464539 325.966431,450.441833 325.966431,451.711395 
	C319.020081,451.711395 312.286224,451.711395 304.995331,451.711395 
	C304.995331,438.507141 305.020020,425.244629 304.974548,411.982361 
	C304.965454,409.327484 304.934998,406.630920 304.484009,404.028137 
	C303.589264,398.864319 300.386963,396.228882 295.251007,396.005310 
	C290.274384,395.788666 286.384644,398.309418 285.110046,403.105103 
	C284.394348,405.797943 284.151154,408.681824 284.130859,411.482788 
	C284.034393,424.792236 284.087738,438.102753 284.087738,451.708313 
	C277.181396,451.708313 270.462067,451.708313 263.503784,451.708313 
	C263.503784,428.140198 263.503784,404.702911 263.503784,380.879700 
	C270.199249,380.879700 276.936371,380.879700 283.893890,380.879700 
	C284.035583,382.741882 284.181580,384.660309 284.379852,387.265961 
	C290.365356,381.698456 296.887512,378.633270 304.740112,378.812103 
	C312.353485,378.985504 319.210541,380.826050 324.314392,386.949707 
	C334.036957,379.356415 344.456787,376.319550 356.152069,380.894592 
	C362.925049,383.544067 366.982391,388.472687 367.119659,396.020508 
	C367.304413,406.179443 367.387695,416.340271 367.514984,427.000305 
z"/>
<path fill="#020202" opacity="1.000000" stroke="none" 
	d="
M655.211975,446.931824 
	C655.211548,448.749359 655.211548,450.073364 655.211548,451.699463 
	C647.306885,451.699463 639.535461,451.699463 631.392578,451.699463 
	C631.392578,419.867889 631.392578,387.820038 631.392578,355.152832 
	C633.767639,355.152832 636.203735,355.126434 638.639221,355.157104 
	C654.789368,355.360352 670.980530,354.927917 687.079102,355.950195 
	C707.531982,357.249023 715.614319,374.663879 713.546387,391.729767 
	C711.485413,408.738159 699.459412,419.089417 681.510437,419.929230 
	C672.913086,420.331512 664.281372,419.998505 655.212402,419.998505 
	C655.212402,429.510956 655.212402,437.974640 655.211975,446.931824 
M688.930847,394.080139 
	C691.554810,383.973633 688.764343,375.792450 681.052429,374.460266 
	C672.700378,373.017517 664.062134,373.231384 655.455200,372.717163 
	C655.455200,383.255096 655.455200,392.645477 655.455200,401.973083 
	C663.316406,401.973083 670.941772,402.353027 678.504089,401.826477 
	C682.840454,401.524536 686.770874,399.319122 688.930847,394.080139 
z"/>
<path fill="#040404" opacity="1.000000" stroke="none" 
	d="
M386.161499,385.999908 
	C386.161499,375.551575 386.161499,365.603302 386.161499,355.401245 
	C393.196594,355.401245 399.764282,355.401245 406.808685,355.401245 
	C406.808685,365.630951 406.808685,375.674042 406.808685,386.073364 
	C422.670441,373.816498 439.750885,377.715729 447.943604,387.745728 
	C451.875824,392.559814 454.862823,398.753876 456.372162,404.798828 
	C458.727692,414.232910 457.768738,423.944427 454.732086,433.333527 
	C448.180969,453.589142 422.817322,461.453827 406.028503,445.657379 
	C406.028503,447.886261 406.028503,449.729889 406.028503,451.789612 
	C399.306915,451.789612 393.033112,451.789612 386.161499,451.789612 
	C386.161499,430.000366 386.161499,408.250153 386.161499,385.999908 
M415.124329,436.801239 
	C425.644531,440.608185 433.459351,437.067993 435.470428,426.310303 
	C436.720825,419.621613 436.600128,412.391083 435.569580,405.636444 
	C434.380798,397.845001 429.391785,394.171417 422.736786,394.005096 
	C415.393402,393.821564 410.279358,397.433655 407.818756,404.825165 
	C405.027802,413.209198 405.527435,421.628998 408.826233,429.688843 
	C409.870728,432.240784 412.578583,434.111908 415.124329,436.801239 
z"/>
<path fill="#020202" opacity="1.000000" stroke="none" 
	d="
M101.008118,395.000000 
	C101.008118,381.551117 101.008118,368.602203 101.008118,355.401001 
	C108.024872,355.401001 114.626274,355.401001 121.920837,355.401001 
	C121.920837,365.738464 121.920837,376.232300 121.920837,387.851288 
	C129.122787,381.548492 136.196198,378.263336 144.843262,378.935608 
	C156.376358,379.832275 164.672028,387.541473 164.893784,399.045959 
	C165.230286,416.503967 164.981750,433.973236 164.981750,451.720032 
	C158.226501,451.720032 151.488617,451.720032 144.204742,451.720032 
	C144.204742,445.899261 144.228745,440.126221 144.199158,434.353485 
	C144.153946,425.528534 144.263748,416.696777 143.941452,407.881287 
	C143.705093,401.416565 139.534882,396.908203 134.162338,396.501007 
	C128.416443,396.065491 123.530083,399.943024 122.834549,406.652252 
	C122.065292,414.072601 122.147018,421.589233 122.028427,429.066650 
	C121.910042,436.530945 122.002457,443.998627 122.002457,451.732361 
	C115.034241,451.732361 108.297485,451.732361 101.008118,451.732361 
	C101.008118,433.003815 101.008118,414.251892 101.008118,395.000000 
z"/>
<path fill="#030303" opacity="1.000000" stroke="none" 
	d="
M553.019043,419.073792 
	C560.396240,410.347412 570.701843,409.179138 580.555115,407.007812 
	C583.949707,406.259766 587.393433,405.734406 590.724670,405.123810 
	C591.960449,398.191437 590.624817,394.383179 586.626282,393.055084 
	C581.231445,391.263184 575.912476,393.541168 572.775146,398.762054 
	C572.216309,399.692017 570.913147,400.727325 569.925232,400.756683 
	C563.792236,400.939178 557.651123,400.848541 551.513184,400.848541 
	C551.634949,390.143036 557.219727,383.039276 568.498779,380.287659 
	C578.820984,377.769501 589.252747,377.826141 599.388062,381.741211 
	C608.052734,385.088165 611.991089,390.741669 612.001282,399.952332 
	C612.016235,413.438202 611.944153,426.924500 612.044434,440.409607 
	C612.072571,444.194275 612.574829,447.975372 612.867493,451.862366 
	C606.906555,451.862366 600.448181,451.862366 593.717285,451.862366 
	C593.532349,450.154022 593.359253,448.555206 593.114380,446.293427 
	C591.349670,447.374481 589.898071,448.272125 588.438477,449.156464 
	C578.776123,455.010773 568.697876,456.041168 558.585327,450.782349 
	C547.976379,445.265411 544.172180,428.906158 553.019043,419.073792 
M586.824646,419.178894 
	C582.626892,420.711578 578.334900,422.031128 574.256531,423.833862 
	C569.715698,425.841034 567.820557,429.622864 569.219543,433.396088 
	C570.817810,437.706543 574.510132,438.896149 578.523010,438.235229 
	C580.998291,437.827576 583.579956,436.558197 585.567139,434.984985 
	C590.955811,430.718964 591.535889,424.659332 591.101379,418.022003 
	C589.772766,418.389130 588.700256,418.685486 586.824646,419.178894 
z"/>
<path fill="#030303" opacity="1.000000" stroke="none" 
	d="
M203.994949,400.572144 
	C197.154922,400.776733 190.680130,400.776733 184.233185,400.776733 
	C183.229874,392.785187 187.577057,385.265594 195.887405,382.029724 
	C208.472610,377.129272 221.297241,377.215668 233.707291,382.646729 
	C240.411682,385.580780 244.264374,390.973907 244.227386,398.725067 
	C244.159882,412.871399 244.167374,427.018921 244.287384,441.164764 
	C244.316650,444.613831 244.903595,448.058228 245.256348,451.736450 
	C239.109879,451.736450 232.587036,451.736450 225.960770,451.736450 
	C225.876953,450.006836 225.797150,448.360321 225.685883,446.064362 
	C223.948792,447.148010 222.481232,448.063629 221.013535,448.979095 
	C212.812256,454.094391 204.083405,455.634583 194.820801,452.501526 
	C186.684647,449.749512 182.099075,443.984985 180.743896,435.464691 
	C179.246231,426.048492 183.073700,418.630615 190.824783,414.427704 
	C197.511383,410.801971 205.357254,409.251251 212.772415,407.059967 
	C216.230804,406.037994 219.882660,405.670593 223.331482,405.027954 
	C224.136429,397.410461 222.582352,393.949005 218.112137,392.915039 
	C211.624527,391.414459 207.121429,393.854797 203.994949,400.572144 
M213.544006,421.000763 
	C210.398178,422.425995 206.790039,423.308685 204.263855,425.461151 
	C202.485199,426.976715 201.031952,430.488312 201.533295,432.613251 
	C202.038361,434.754028 204.943604,437.423523 207.148117,437.798584 
	C210.079956,438.297394 213.804810,437.557190 216.388443,436.011353 
	C223.009033,432.050049 223.833237,425.314240 223.572388,417.823761 
	C220.223389,418.934418 217.273544,419.912689 213.544006,421.000763 
z"/>
<path fill="#F1F1F1" opacity="1.000000" stroke="none" 
	d="
M750.148560,407.539917 
	C747.362000,407.539948 745.050659,407.539948 742.733887,407.539948 
	C742.994202,399.346832 748.903198,393.601654 756.952209,393.494324 
	C765.197449,393.384308 770.350586,398.388123 770.823486,407.539886 
	C764.077515,407.539886 757.350647,407.539886 750.148560,407.539917 
z"/>
<path fill="#F1F1F1" opacity="1.000000" stroke="none" 
	d="
M516.324585,407.388580 
	C506.952087,407.519836 498.003845,407.519836 489.045441,407.519836 
	C489.397949,398.873474 495.716431,393.145569 504.062622,393.502106 
	C512.250305,393.851929 517.302612,399.329926 516.324585,407.388580 
z"/>
<path fill="#FDFDFD" opacity="1.000000" stroke="none" 
	d="
M391.090454,148.904785 
	C392.126465,149.769638 393.045258,150.329803 393.557800,151.145294 
	C394.893372,153.270340 399.039948,153.552292 397.482117,157.632736 
	C395.908630,161.754242 395.001343,165.626373 389.324127,166.622421 
	C383.907654,167.572693 379.300079,167.608643 374.289551,164.937073 
	C362.322449,158.556320 350.139282,152.568542 337.908356,146.703629 
	C334.966370,145.292908 335.064728,143.692810 335.233734,140.919754 
	C335.833832,131.074020 344.352325,130.485168 350.591858,127.233902 
	C351.106384,126.965797 352.174164,127.357338 352.790741,127.748436 
	C359.801697,132.195557 367.397034,132.703796 375.695099,131.044891 
	C377.507355,139.674164 385.584473,142.924103 391.090454,148.904785 
z"/>
<path fill="#FAFAFA" opacity="1.000000" stroke="none" 
	d="
M355.671814,167.323029 
	C360.468170,169.702698 365.074432,171.663589 369.381744,174.143661 
	C376.067627,177.993286 382.720032,181.004990 390.708588,176.233276 
	C391.924683,179.426941 392.895844,181.977341 393.920807,184.669022 
	C389.266022,189.420395 384.739594,192.143677 377.395081,189.967957 
	C359.966431,184.804993 342.262756,180.564224 324.640167,176.068634 
	C321.871765,175.362396 320.446808,174.321030 320.528107,171.148529 
	C320.629303,167.199127 320.094727,163.233414 319.891937,160.145920 
	C327.393311,153.818420 334.154022,155.573868 341.137207,159.957016 
	C345.612946,162.766312 350.593475,164.771378 355.671814,167.323029 
z"/>
<path fill="#FBFBFB" opacity="1.000000" stroke="none" 
	d="
M361.732117,127.849045 
	C353.330231,124.812035 352.824005,123.659576 354.304108,111.460365 
	C372.063080,107.854149 389.900787,104.184425 407.777222,100.714233 
	C408.907471,100.494820 410.828430,101.486267 411.542297,102.503426 
	C414.009644,106.018913 416.105377,109.795242 418.729126,114.107643 
	C410.072815,116.629478 401.785095,119.043930 392.414307,121.773911 
	C394.331909,118.802979 395.553040,116.911072 396.774170,115.019165 
	C396.593414,114.585632 396.412659,114.152107 396.231934,113.718582 
	C394.995880,114.168076 393.257172,114.243004 392.600555,115.124229 
	C384.936768,125.409416 374.846893,129.707718 361.732117,127.849045 
z"/>
<path fill="#FBFBFB" opacity="1.000000" stroke="none" 
	d="
M316.854980,200.155518 
	C316.105255,197.546173 314.939606,195.347565 314.888550,193.123383 
	C314.772675,188.074799 318.834839,185.393478 323.866608,186.696533 
	C341.312653,191.214432 358.790192,195.614212 376.188171,200.309296 
	C378.074127,200.818268 381.005615,200.219864 381.481293,204.212753 
	C381.923309,207.923477 381.017975,209.213882 377.899323,210.937119 
	C371.652222,214.388977 365.585632,213.186020 359.302246,211.761490 
	C346.233521,208.798630 333.137848,205.953461 320.085510,202.921219 
	C318.918427,202.650070 317.986328,201.367462 316.854980,200.155518 
z"/>
<path fill="#F9F9F9" opacity="1.000000" stroke="none" 
	d="
M339.082031,217.978455 
	C345.496460,219.331345 351.488159,220.655991 357.467346,221.977875 
	C358.087524,226.029373 351.384857,232.204056 347.202728,231.361786 
	C343.957092,230.708115 340.664856,230.098236 337.550781,229.015823 
	C329.626801,226.261536 321.886963,227.873657 314.207611,229.684952 
	C309.179138,222.783691 309.094238,220.151642 314.149567,214.749802 
	C315.014099,213.826035 316.982269,213.260376 318.253387,213.504395 
	C325.087982,214.816299 331.863434,216.436432 339.082031,217.978455 
z"/>
<path fill="#F8F8F8" opacity="1.000000" stroke="none" 
	d="
M688.804199,394.455444 
	C686.770874,399.319122 682.840454,401.524536 678.504089,401.826477 
	C670.941772,402.353027 663.316406,401.973083 655.455200,401.973083 
	C655.455200,392.645477 655.455200,383.255096 655.455200,372.717163 
	C664.062134,373.231384 672.700378,373.017517 681.052429,374.460266 
	C688.764343,375.792450 691.554810,383.973633 688.804199,394.455444 
z"/>
<path fill="#FCFCFC" opacity="1.000000" stroke="none" 
	d="
M414.824768,436.547913 
	C412.578583,434.111908 409.870728,432.240784 408.826233,429.688843 
	C405.527435,421.628998 405.027802,413.209198 407.818756,404.825165 
	C410.279358,397.433655 415.393402,393.821564 422.736786,394.005096 
	C429.391785,394.171417 434.380798,397.845001 435.569580,405.636444 
	C436.600128,412.391083 436.720825,419.621613 435.470428,426.310303 
	C433.459351,437.067993 425.644531,440.608185 414.824768,436.547913 
z"/>
<path fill="#FBFBFB" opacity="1.000000" stroke="none" 
	d="
M587.226196,419.080383 
	C588.700256,418.685486 589.772766,418.389130 591.101379,418.022003 
	C591.535889,424.659332 590.955811,430.718964 585.567139,434.984985 
	C583.579956,436.558197 580.998291,437.827576 578.523010,438.235229 
	C574.510132,438.896149 570.817810,437.706543 569.219543,433.396088 
	C567.820557,429.622864 569.715698,425.841034 574.256531,423.833862 
	C578.334900,422.031128 582.626892,420.711578 587.226196,419.080383 
z"/>
<path fill="#F8F8F8" opacity="1.000000" stroke="none" 
	d="
M213.933838,420.945862 
	C217.273544,419.912689 220.223389,418.934418 223.572388,417.823761 
	C223.833237,425.314240 223.009033,432.050049 216.388443,436.011353 
	C213.804810,437.557190 210.079956,438.297394 207.148117,437.798584 
	C204.943604,437.423523 202.038361,434.754028 201.533295,432.613251 
	C201.031952,430.488312 202.485199,426.976715 204.263855,425.461151 
	C206.790039,423.308685 210.398178,422.425995 213.933838,420.945862 
z"/>
</svg>