<svg version="1.1" id="Layer_1" xmlns="http://www.w3.org/2000/svg" xmlns:xlink="http://www.w3.org/1999/xlink" x="0px" y="0px"
	 width="100%" viewBox="0 0 1024 672" enable-background="new 0 0 1024 672" xml:space="preserve">
<path fill="#000000" opacity="1.000000" stroke="none" 
	d="
M470.597534,282.596313 
	C475.687469,277.766632 480.465088,273.118073 485.393036,268.634766 
	C487.354034,266.850647 487.729919,265.100403 487.267395,262.464691 
	C485.615997,253.053833 481.496826,244.390091 479.368225,235.134079 
	C477.673462,227.764648 479.033325,220.862076 484.016510,215.495911 
	C504.200836,193.760422 524.808044,172.424576 548.141296,153.960419 
	C551.927917,150.963959 555.048645,151.439743 555.864502,155.379868 
	C558.760437,169.365555 562.859863,183.101974 563.628113,197.533020 
	C564.330627,210.729202 558.450745,220.198242 548.526001,227.872391 
	C543.930603,231.425720 539.325500,234.966522 534.134399,238.968140 
	C542.760376,245.727951 551.768005,251.342606 558.810425,259.778229 
	C563.672546,253.337234 568.293823,247.485031 572.623169,241.424271 
	C581.757202,228.637253 593.865540,225.317963 608.677490,229.309845 
	C617.377319,231.654449 625.936279,234.353348 634.282043,237.718155 
	C640.479492,240.216812 640.978455,242.923737 636.019226,247.432556 
	C625.408691,257.079407 615.357849,267.270782 605.645203,277.818085 
	C598.737915,285.319031 593.006470,293.728668 586.682678,301.677887 
	C571.863220,320.306396 564.312317,322.859558 541.239258,316.606628 
	C537.864990,315.692230 534.372375,315.110809 531.115967,313.890930 
	C526.677612,312.228210 523.832886,313.464508 520.938354,317.166229 
	C514.373779,325.561218 507.407104,333.644531 499.732269,341.084839 
	C491.437683,349.125854 482.604523,355.452667 470.127350,355.334137 
	C460.101624,355.238861 450.466827,358.479095 440.827637,361.120911 
	C438.037903,361.885468 436.224731,363.586151 434.578247,365.762909 
	C424.398895,379.220764 413.374969,391.896912 400.230469,402.591156 
	C398.292480,404.167908 396.382629,405.785187 394.373718,407.267029 
	C392.369110,408.745605 390.230286,408.774841 388.548859,406.842285 
	C386.743286,404.766968 387.582794,402.793213 389.423309,401.188843 
	C391.934540,398.999847 394.487854,396.856750 397.072418,394.754608 
	C410.762512,383.619629 421.338043,369.601959 432.471313,356.139923 
	C435.926025,351.962585 435.841644,346.130157 436.592255,340.885834 
	C437.462738,334.803894 438.059937,328.679321 438.640869,322.560425 
	C439.284698,315.779022 442.149933,310.158966 447.019592,305.462097 
	C454.814941,297.943390 462.572144,290.385223 470.597534,282.596313 
M497.029694,332.539490 
	C508.766602,318.488586 521.114990,305.007812 534.065002,292.056213 
	C539.351562,286.769012 543.898315,280.797516 547.794556,274.338989 
	C550.470398,269.903534 550.254456,265.985138 547.147522,261.912476 
	C542.305969,255.566071 535.562134,251.501877 529.471313,246.629059 
	C526.677307,244.393799 524.680969,244.762283 522.130676,246.900330 
	C500.449493,265.076843 479.271942,283.770660 460.050171,304.608734 
	C447.809967,317.878204 443.937256,333.904907 443.428040,351.667236 
	C451.867249,349.816437 460.133850,347.637085 468.558685,347.422089 
	C480.387726,347.120209 488.959839,341.231781 497.029694,332.539490 
M537.652771,173.154510 
	C523.997437,185.384552 511.323822,198.600632 498.766418,211.930496 
	C492.050568,219.059464 486.882324,227.017731 488.478424,237.351089 
	C489.630951,244.812546 493.600220,251.498596 494.879486,259.696381 
	C497.140137,257.779724 498.639404,256.488373 500.160034,255.222717 
	C508.963898,247.894897 517.364380,240.133102 526.954224,233.697906 
	C535.482361,227.975159 543.851196,221.777863 550.114380,213.343185 
	C552.632568,209.951920 554.950562,206.324539 554.629089,201.967987 
	C553.690063,189.245026 551.804382,176.644180 549.210266,163.672150 
	C544.817688,166.326447 541.423706,169.410080 537.652771,173.154510 
M619.584106,252.093445 
	C622.221741,249.466141 625.571167,247.478409 627.536621,243.671539 
	C619.582764,240.030823 611.666992,237.755478 603.463135,236.310501 
	C594.864685,234.796021 588.935730,237.964233 583.259155,244.740646 
	C567.589539,263.446289 552.875183,282.989471 535.710266,300.425903 
	C534.159302,302.001343 532.480103,303.650452 531.734070,306.211334 
	C541.436035,308.749329 550.817139,310.584534 560.581848,309.930084 
	C566.463684,309.535889 571.183167,307.107971 574.650391,302.472107 
	C588.040222,284.569214 603.358337,268.395386 619.584106,252.093445 
z"/>
<path fill="#000000" opacity="1.000000" stroke="none" 
	d="
M203.708618,509.996460 
	C203.707413,506.510712 203.272751,503.437317 203.808990,500.543884 
	C204.590317,496.327942 199.654343,494.547821 199.982468,491.431519 
	C200.285385,488.554596 204.205002,486.850403 203.842010,482.818848 
	C203.322281,477.046143 203.828094,471.188354 203.668655,465.373169 
	C203.574844,461.952271 204.886963,460.602692 208.335495,460.662842 
	C216.480499,460.804871 224.630814,460.624573 232.776703,460.738434 
	C239.234085,460.828674 248.050491,469.956268 248.065750,476.410522 
	C248.090118,486.719482 247.977661,497.029846 248.121857,507.336823 
	C248.167953,510.630402 246.880432,512.880859 244.627213,515.160828 
	C239.480209,520.368896 233.878815,523.437195 226.143082,522.488159 
	C220.573547,521.804932 214.844971,522.173889 209.201981,522.415710 
	C205.123871,522.590454 203.317032,521.125610 203.680771,516.971130 
	C203.868591,514.826172 203.710785,512.650879 203.708618,509.996460 
M237.827896,487.524231 
	C238.750565,472.164856 235.832550,470.379913 221.385864,470.980042 
	C220.887650,471.000732 220.381393,471.032074 219.889618,470.971466 
	C215.644897,470.448212 213.869705,472.096710 214.028793,476.565277 
	C214.300888,484.208740 214.092148,491.869080 214.099426,499.522308 
	C214.112152,512.884644 214.116623,512.884644 227.716980,512.614929 
	C234.256088,512.485229 237.801514,508.951477 237.830109,502.492828 
	C237.850739,497.834442 237.830414,493.175842 237.827896,487.524231 
z"/>
<path fill="#000000" opacity="1.000000" stroke="none" 
	d="
M341.989136,491.607361 
	C353.401489,491.742035 351.419159,490.390594 352.541321,501.542816 
	C353.455292,510.625885 349.144775,515.806885 342.860321,520.662170 
	C341.142181,521.989563 339.359344,522.394287 337.301483,522.375366 
	C332.637970,522.332397 327.968872,522.234619 323.311523,522.410400 
	C320.098969,522.531677 317.798309,521.184998 315.197937,519.411865 
	C308.626404,514.931091 305.507172,509.268280 306.806091,501.273193 
	C307.280762,498.351562 306.620850,495.680023 304.056152,493.707916 
	C302.878448,492.802307 302.337433,491.211670 303.658752,490.266205 
	C307.675751,487.392029 306.796112,483.264771 306.814148,479.354248 
	C306.864960,468.349091 314.604309,460.725983 325.794525,460.712921 
	C327.460205,460.710999 329.179657,460.980774 330.782623,460.662842 
	C339.595367,458.915070 345.192383,464.026398 350.531769,469.727051 
	C352.155273,471.460388 353.204163,481.436676 351.809113,483.109650 
	C350.031097,485.241852 347.480621,484.204346 345.238525,484.234344 
	C342.926910,484.265259 342.828400,482.546356 342.638153,480.784546 
	C341.879883,473.763306 338.728455,470.990387 331.562714,470.930359 
	C329.397949,470.912231 327.221680,470.840302 325.069580,471.019867 
	C320.219055,471.424530 317.266510,474.625854 317.234589,479.513519 
	C317.183472,487.341888 317.451050,495.180145 317.132660,502.995819 
	C316.964020,507.136780 318.874908,509.585144 322.001251,511.527618 
	C327.146881,514.724670 337.946075,512.551392 341.513611,507.755188 
	C342.618256,506.270172 342.891998,504.696899 342.421143,503.048523 
	C341.795380,500.857666 339.789581,501.587921 338.241272,501.264984 
	C335.633911,500.721191 331.865387,502.996216 330.804718,498.514404 
	C329.576202,493.323273 330.987915,491.685974 336.500336,491.618591 
	C338.165771,491.598236 339.831635,491.608948 341.989136,491.607361 
z"/>
<path fill="#000000" opacity="1.000000" stroke="none" 
	d="
M639.329468,507.703918 
	C638.923096,513.387024 630.401550,522.185425 625.269775,522.287720 
	C616.789856,522.456726 608.302734,522.244080 599.821289,522.370667 
	C596.444458,522.421082 595.527222,520.832642 595.607117,517.787109 
	C595.733643,512.966614 595.606506,508.140076 595.638367,503.316437 
	C595.662415,499.664551 596.110779,496.012573 592.301086,493.538483 
	C590.351318,492.272339 591.300049,490.580353 592.814209,489.474823 
	C595.439453,487.558014 595.741821,484.923218 595.674377,481.957733 
	C595.549500,476.471436 595.756348,470.977051 595.608032,465.491913 
	C595.518616,462.184662 596.589539,460.612579 600.148804,460.679260 
	C608.296631,460.831909 616.451904,460.600525 624.599060,460.771454 
	C630.908325,460.903839 639.334595,469.955383 639.340393,476.302338 
	C639.349792,486.615570 639.334900,496.928772 639.329468,507.703918 
M629.601196,505.645264 
	C629.616516,497.177551 629.667419,488.709656 629.634277,480.242157 
	C629.613220,474.851685 626.177185,471.189270 620.838379,470.961670 
	C617.192200,470.806244 613.530029,471.037476 609.882324,470.900665 
	C606.414551,470.770599 605.245300,472.311279 605.295959,475.691711 
	C605.435303,484.987732 605.303589,494.287445 605.330750,503.585541 
	C605.359497,513.425842 604.344055,512.453430 614.481506,512.705139 
	C620.554321,512.855957 626.152222,512.557983 629.601196,505.645264 
z"/>
<path fill="#000000" opacity="1.000000" stroke="none" 
	d="
M726.641479,480.738770 
	C726.643066,475.277740 726.789429,470.276367 726.596924,465.288086 
	C726.460510,461.753296 727.971375,460.605988 731.333496,460.669739 
	C738.657959,460.808655 745.986938,460.705719 753.314026,460.721191 
	C754.639038,460.723969 756.073059,460.595428 757.110840,461.604492 
	C762.999756,467.329834 768.893921,472.954254 766.993042,482.516907 
	C766.204773,486.482574 763.530334,488.967926 761.077759,491.503387 
	C757.792175,494.899994 757.381287,497.871429 759.709106,502.033020 
	C763.169861,508.220154 766.016785,514.750610 769.162720,521.212524 
	C761.176147,523.771057 759.350464,523.050537 755.989746,516.374023 
	C753.370117,511.169647 750.592590,506.028290 748.296326,500.682373 
	C746.270752,495.966736 742.442932,496.934082 738.960327,497.312347 
	C735.131531,497.728271 736.497620,501.072693 736.415161,503.304321 
	C736.230896,508.293640 736.219360,513.297546 736.372192,518.288269 
	C736.478882,521.773254 734.656189,522.423096 731.702026,522.404053 
	C728.692078,522.384705 726.439270,522.054321 726.622803,518.167114 
	C726.811035,514.179871 726.588379,510.175049 726.655334,506.179718 
	C726.741821,501.011230 727.444397,495.687256 721.568481,492.391663 
	C724.449890,488.790588 727.854553,485.913300 726.641479,480.738770 
M750.577026,486.628143 
	C757.222839,482.557190 758.406799,478.229492 754.133118,473.629852 
	C752.029663,471.365997 740.307678,469.904572 737.701050,471.552765 
	C736.747253,472.155914 736.577209,473.070374 736.402039,474.069977 
	C734.473145,485.076721 735.922974,486.866028 746.762024,486.779205 
	C747.755005,486.771210 748.747803,486.739014 750.577026,486.628143 
z"/>
<path fill="#000000" opacity="1.000000" stroke="none" 
	d="
M653.984863,518.104126 
	C655.988464,512.751587 657.731262,507.719421 659.770203,502.810303 
	C661.319824,499.079193 662.186523,495.578735 658.216980,491.936493 
	C669.583862,486.554230 669.244934,474.794617 673.496399,465.613983 
	C675.138123,462.068726 676.849243,460.559601 680.846619,460.594971 
	C684.789551,460.629852 686.308655,462.350128 687.550659,465.748383 
	C693.655518,482.450775 699.995056,499.067322 706.229858,515.722351 
	C706.920776,517.568054 707.825928,519.385132 707.598572,521.447144 
	C700.216309,523.731323 698.530701,522.982544 695.937012,516.268616 
	C695.278137,514.563171 694.584229,512.864441 694.052734,511.118103 
	C693.205200,508.333069 691.511292,507.173889 688.518738,507.279327 
	C683.201721,507.466644 677.868164,507.465790 672.551331,507.273407 
	C669.546448,507.164673 667.938110,508.316956 667.096191,511.145020 
	C666.434814,513.366577 665.385071,515.471130 664.532227,517.637268 
	C662.791260,522.058655 659.865479,523.423523 655.194092,522.303528 
	C652.471680,521.650818 653.502136,520.025208 653.984863,518.104126 
M687.954590,495.384949 
	C685.685852,489.032349 683.417053,482.679749 681.148315,476.327148 
	C680.730286,476.307556 680.312317,476.287964 679.894287,476.268372 
	C677.495544,483.095673 675.096802,489.922974 672.353027,497.732269 
	C678.364136,496.798279 683.421692,499.352783 687.954590,495.384949 
z"/>
<path fill="#000000" opacity="1.000000" stroke="none" 
	d="
M512.379395,506.712830 
	C514.245850,511.854736 515.969543,516.634460 517.713989,521.471802 
	C508.860138,523.579102 508.052124,523.099304 505.206390,515.612671 
	C501.454437,505.742096 503.096741,507.530060 493.323517,507.326355 
	C492.824402,507.315948 492.312805,507.396027 491.827332,507.313904 
	C482.346069,505.710205 475.558472,507.876251 473.487762,518.738159 
	C472.678864,522.981262 469.722076,523.351501 462.506317,521.273682 
	C464.584595,515.533264 466.624664,509.808075 468.732025,504.107758 
	C470.257263,499.981995 473.178619,495.860748 467.351135,491.952362 
	C479.273010,486.538635 478.553070,474.697662 483.012939,465.788940 
	C484.537262,462.744110 485.747192,460.578949 489.792297,460.593079 
	C493.799591,460.607086 495.700775,461.966125 497.042847,465.702850 
	C501.931763,479.315247 507.145416,492.810974 512.379395,506.712830 
M497.327271,494.892059 
	C495.090912,488.686279 492.854553,482.480499 490.618195,476.274719 
	C490.253693,476.265289 489.889191,476.255890 489.524658,476.246490 
	C487.086578,482.978485 484.648468,489.710480 482.127075,496.672546 
	C486.498169,498.268311 490.331390,497.446594 494.076202,497.584229 
	C495.494537,497.636353 497.250000,497.842163 497.327271,494.892059 
z"/>
<path fill="#000000" opacity="1.000000" stroke="none" 
	d="
M438.976807,460.704529 
	C441.137238,460.705475 442.805756,460.785187 444.464539,460.691589 
	C447.970123,460.493744 450.463745,460.775391 450.466736,465.564148 
	C450.469757,470.394531 448.070343,470.969330 444.261749,470.994751 
	C432.032257,471.076324 433.290009,468.938080 432.898407,482.632812 
	C432.782013,486.702972 436.632568,488.855896 436.517517,491.836304 
	C436.400543,494.868744 432.540192,497.068970 432.928223,501.152130 
	C433.429596,506.428436 432.940125,511.792236 433.047516,517.114929 
	C433.121460,520.782471 431.935028,522.508606 427.864777,522.467224 
	C423.929932,522.427185 422.526001,521.065125 422.707703,517.192261 
	C422.941406,512.210693 422.728058,507.209717 422.786102,502.218048 
	C422.823273,499.025360 422.979004,495.926666 419.884338,493.726807 
	C418.159302,492.500549 418.503723,490.978333 420.018127,489.551147 
	C425.133209,484.730469 422.159943,478.598877 422.473022,473.034973 
	C422.574493,471.231628 420.521118,471.027252 418.998840,470.994293 
	C415.838348,470.925812 412.674744,470.867798 409.515045,470.933319 
	C405.667053,471.013092 404.800781,468.851471 404.857117,465.490479 
	C404.911621,462.237244 405.962128,460.618835 409.525574,460.671204 
	C419.175293,460.812988 428.828583,460.710388 438.976807,460.704529 
z"/>
<path fill="#000000" opacity="1.000000" stroke="none" 
	d="
M810.351440,483.512573 
	C810.026184,486.397797 811.281433,488.015259 813.097107,489.435822 
	C815.126099,491.023315 815.233521,492.852905 813.030273,494.294006 
	C810.356506,496.042908 810.273743,498.563416 810.312195,501.311066 
	C810.389160,506.808441 810.153687,512.315674 810.396179,517.803406 
	C810.572815,521.799133 808.607300,522.450195 805.216370,522.448608 
	C801.906067,522.447144 800.328857,521.609924 800.527344,517.939148 
	C800.796875,512.955261 800.523621,507.944519 800.609070,502.947479 
	C800.667358,499.537689 800.606750,496.318512 797.501953,493.953796 
	C795.588989,492.496735 796.133179,491.045715 797.770874,489.422852 
	C800.419617,486.798004 801.701538,475.657928 800.080566,472.427338 
	C799.306335,470.884399 797.955017,471.014313 796.657104,470.991333 
	C793.658813,470.938141 790.653381,470.840637 787.661499,470.983765 
	C783.665344,471.174896 782.585327,469.251068 782.609802,465.506134 
	C782.634583,461.721222 784.195557,460.623230 787.732666,460.660339 
	C799.561340,460.784607 811.393250,460.792999 823.221436,460.649017 
	C826.836365,460.605042 828.317627,461.844025 828.290222,465.552185 
	C828.265076,468.958069 827.395325,471.085449 823.588074,470.946381 
	C823.089539,470.928192 822.588928,470.966431 822.089233,470.979095 
	C810.334839,471.276672 810.334839,471.276703 810.351440,483.512573 
z"/>
<path fill="#000000" opacity="1.000000" stroke="none" 
	d="
M536.667175,486.060425 
	C536.751892,479.168823 536.929626,472.679626 536.747742,466.200531 
	C536.635193,462.191589 537.968933,460.565826 542.193176,460.621613 
	C546.289673,460.675781 547.279114,462.473206 547.250916,466.121582 
	C547.144287,479.923218 547.311096,493.727417 547.145813,507.527863 
	C547.099915,511.356964 548.204346,512.932251 552.250610,512.745056 
	C558.390137,512.460876 564.554993,512.778198 570.704956,512.647522 
	C574.051697,512.576294 575.084778,514.205505 575.006226,517.231201 
	C574.931274,520.119751 574.677795,522.462524 570.757935,522.404358 
	C560.948792,522.258850 551.134583,522.272278 541.325317,522.416809 
	C537.732361,522.469727 536.688171,520.814148 536.782288,517.557190 
	C536.907166,513.237244 536.782959,508.910675 536.807922,504.587158 
	C536.834656,499.947083 537.640442,495.073669 532.694275,492.635284 
	C532.872192,489.342407 536.173645,488.895966 536.667175,486.060425 
z"/>
<path fill="#000000" opacity="1.000000" stroke="none" 
	d="
M282.165039,489.591187 
	C283.501221,490.886169 284.208374,492.393341 282.838898,493.266785 
	C278.209961,496.218994 279.380859,500.741974 279.309753,504.938385 
	C279.233643,509.429596 279.169067,513.924988 279.278778,518.414185 
	C279.365753,521.972900 277.272247,522.404541 274.442322,522.402466 
	C271.547913,522.400391 269.038025,522.294678 269.088440,518.385132 
	C269.152802,513.394836 269.046509,508.402557 269.069183,503.411346 
	C269.085876,499.737457 269.354523,496.081482 265.866272,493.462769 
	C264.229340,492.233887 264.981628,490.676239 266.321991,489.715302 
	C269.027008,487.776123 269.105621,485.037720 269.085114,482.140961 
	C269.045105,476.484711 269.157990,470.827271 269.103241,465.171326 
	C269.065521,461.273071 271.290253,460.645660 274.600769,460.644012 
	C277.996887,460.642334 279.421661,461.839050 279.332001,465.314392 
	C279.177612,471.299988 279.391022,477.294617 279.270782,483.281860 
	C279.220154,485.802338 279.754761,487.869720 282.165039,489.591187 
z"/>
<path fill="#000000" opacity="1.000000" stroke="none" 
	d="
M380.027313,522.352295 
	C376.085297,522.713074 374.778259,521.051575 374.864166,517.680237 
	C374.991302,512.689148 374.861603,507.692139 374.910156,502.698273 
	C374.942719,499.350433 375.200928,496.015442 372.055298,493.628754 
	C370.774384,492.656921 370.723633,491.141266 372.012756,490.207611 
	C375.467010,487.705902 374.867889,484.112976 374.886139,480.657135 
	C374.913452,475.496521 375.017090,470.333710 374.906128,465.175781 
	C374.820221,461.181610 377.084625,460.640320 380.371887,460.665802 
	C383.616943,460.691010 385.388733,461.623627 385.287720,465.211090 
	C385.147247,470.201233 385.272278,475.198608 385.268188,480.192902 
	C385.265228,483.825409 384.724548,487.528412 388.507416,490.036224 
	C390.177826,491.143616 389.429260,492.829437 388.084381,493.786285 
	C385.191772,495.844513 385.205536,498.751617 385.246338,501.814697 
	C385.317261,507.140808 385.123810,512.472107 385.269897,517.794922 
	C385.365784,521.289673 383.860413,522.692322 380.027313,522.352295 
z"/>
</svg>