<svg width="318" height="305" viewBox="0 0 318 305" fill="none" xmlns="http://www.w3.org/2000/svg">
<path d="M172.927 0C180.262 1.3364 187.192 2.41393 193.986 4.05041C245.546 16.4687 283.19 46.6529 303.923 95.3013C325.396 145.686 320.53 194.911 290.756 241.265C288.169 245.294 285.241 249.103 282.569 252.876C269.492 244.924 260.105 233.768 251.389 221.983C246.823 215.809 247.539 208.388 253.635 204.129C259.606 199.959 261.315 195.651 258.799 188.411C255.488 178.886 256.128 178.667 264.265 172.716C265.996 171.45 267.706 170.155 269.67 168.692C264.08 160.695 258.601 152.859 253.123 145.023C253.712 144.996 254.301 144.969 254.889 144.942C255.364 142.296 256.508 139.565 256.187 137.02C255.23 129.442 253.83 121.91 252.285 114.426C251.944 112.772 250.627 110.822 249.189 109.976C242.758 106.193 236.164 102.677 229.528 99.2622C227.991 98.4717 226.064 98.1974 224.301 98.1342C217.143 97.8776 209.964 98.0097 202.828 97.5049C200.949 97.372 198.562 95.8933 197.497 94.3034C193.343 88.1054 189.549 81.66 185.79 75.2076C184.497 72.9867 183.501 71.997 180.458 72.6332C150.241 78.9517 119.966 84.9994 89.2633 91.2137C89.5874 96.0916 89.8039 100.888 90.264 105.661C90.5126 108.24 90.2516 110.184 87.2952 110.901C79.6617 112.754 75.5628 117.583 75.2476 125.507C74.916 133.844 70.0461 138.141 62.3644 139.844C57.0189 141.029 54.5789 143.751 56.0777 149.566C56.8093 152.405 56.0482 155.605 56.6221 158.512C58.6924 168.996 56.4486 178.377 50.9342 187.457C49.6776 189.526 50.4713 193.521 51.517 196.154C53.2389 200.491 53.3002 203.995 49.5805 207.141C43.6748 212.135 42.8879 217.917 46.9352 224.455C49.4413 228.503 48.3643 231.563 44.8448 234.689C40.0028 238.99 35.666 243.859 30.8508 248.751C21.4784 236.524 14.3658 223.484 9.38455 209.33C-13.6262 143.95 6.44228 75.2477 61.2126 32.9266C85.019 14.5313 112.243 4.163 142.261 0.384207C152.417 1.07288e-06 162.437 1e-06 172.927 0Z" fill="#010101"/>
<path d="M228.608 187.32C219.42 187.905 210.663 188.484 201.905 189.063C201.768 188.792 201.631 188.521 201.494 188.249C212.776 180.014 224.057 171.779 235.832 163.184C233.201 159.415 230.747 155.574 227.888 152.064C227.295 151.337 225.141 151.547 223.804 151.815C212.257 154.123 200.733 156.544 188.877 158.357C195.942 153.604 202.998 148.838 210.073 144.101C216.004 140.129 221.994 136.244 227.886 132.215C230.981 130.099 231.054 127.419 227.697 125.942C223.728 124.197 219.446 122.622 215.181 122.211C208.074 121.528 200.86 121.536 193.715 121.824C189.303 122.002 184.849 122.917 180.565 124.063C171.044 126.61 161.617 129.511 151.276 132.522C157.695 138.283 163.361 143.582 169.284 148.577C171.587 150.518 172.157 152.115 170.81 154.905C169.312 158.009 168.818 161.622 167.181 164.63C163.529 171.344 163.15 177.857 166.878 184.613C168.163 186.941 167.895 188.862 165.085 190.218C154.759 195.198 150.124 202.671 156.04 214.443C139.533 219.508 128.632 231.962 115.18 240.576C113.835 241.437 111.781 241.783 110.185 241.536C106.427 240.957 102.573 240.31 99.0719 238.907C91.0946 235.71 83.3639 237.813 75.6032 239.4C74.1543 239.697 72.8003 241.019 71.6505 242.126C63.2542 250.207 54.9212 258.355 46.3113 266.732C44.3681 264.646 42.1326 262.247 39.5828 259.51C47.1756 251.77 54.6094 244.022 62.2627 236.497C64.4476 234.349 65.5742 232.498 63.5985 229.762C63.5049 229.632 63.4921 229.446 63.4096 229.306C58.7603 221.366 59.0087 214.168 66.5078 207.964C68.946 205.947 68.8656 203.388 67.5008 200.799C64.0215 194.199 64.6898 188.191 68.9186 181.946C70.7019 179.312 70.8654 175.446 71.2956 172.079C71.5854 169.811 71.1011 167.434 70.8801 165.113C69.6321 152.011 69.6631 152.099 81.2607 146.834C82.9145 146.083 84.1573 144.136 85.2311 142.505C85.9141 141.468 86.1417 140.007 86.2176 138.715C86.808 128.67 91.2533 121.71 101.487 119.254C104.001 118.65 104.762 117.167 104.544 114.517C104.22 110.566 104.46 106.569 104.46 102.094C116.984 99.4793 129.933 96.7376 142.9 94.0816C152.997 92.0134 163.15 90.2022 173.205 87.9517C176.244 87.2715 177.666 88.0754 179.109 90.6343C182.452 96.5603 185.952 102.414 189.737 108.063C190.703 109.505 192.91 110.781 194.646 110.923C200.944 111.437 207.345 112.071 213.596 111.481C222.741 110.619 229.974 114.668 237.237 119.014C238.306 119.653 238.943 121.126 239.587 122.317C239.966 123.019 239.904 123.945 240.145 124.739C242.36 132.065 242.416 138.522 233.224 140.945C239.19 149.377 244.82 157.336 250.602 165.508C246.118 168.821 241.757 172.044 238.332 174.575C239.839 176.835 241.342 178.689 242.413 180.765C246.867 189.401 244.466 196.013 236.212 200.752C233.167 202.5 232.898 204.946 233.395 208.29C234.091 212.968 237.237 217.506 234.559 222.599C234.249 223.19 236.069 224.974 236.996 226.13C247.768 239.552 257.518 253.953 273.424 263.116C270.268 265.7 267.736 267.774 264.96 270.048C248.276 260.585 237.67 243.687 225.057 227.99C208.424 238.773 191.931 249.464 175.11 260.368C189.306 273.875 203.258 287.15 217.72 300.91C214.275 302.112 211.277 303.44 208.138 304.111C206.92 304.371 205.056 303.495 204.044 302.543C192.647 291.822 181.265 281.08 170.104 270.115C167.263 267.325 164.059 266.789 160.461 265.882C149.69 263.166 142.463 267.464 135.595 275.377C127.97 284.163 119.01 291.777 111.03 300.276C107.999 303.504 105.406 304.223 101.693 302.1C100.147 301.216 98.3981 300.686 97.2701 300.216C120.01 275.826 142.737 251.451 166.259 226.223C165.842 228.077 165.949 229.754 165.172 230.722C159.046 238.346 152.751 245.836 146.067 253.898C154.989 255.098 162.673 256.728 170.835 250.872C186.871 239.366 203.785 229.078 220.43 218.435C223.121 216.714 224.819 215.097 223.409 211.778C219.662 202.959 222.034 196.291 230.393 191.618C231.617 190.933 232.522 189.679 234.713 187.617C231.946 187.469 230.492 187.391 228.608 187.32ZM152.184 147.716C146.98 141.924 138.903 138.674 137.091 130.045C128.793 131.704 121.197 131.196 114.187 126.748C113.57 126.357 112.502 125.966 111.988 126.234C105.748 129.485 97.2296 130.074 96.6295 139.92C96.4605 142.693 96.3622 144.293 99.3041 145.704C111.535 151.569 123.718 157.556 135.685 163.937C140.696 166.609 145.303 166.573 150.72 165.622C156.397 164.626 157.304 160.754 158.878 156.633C160.436 152.552 156.289 152.27 154.954 150.145C154.441 149.33 153.522 148.77 152.184 147.716ZM116.743 166.137C111.989 163.771 107.009 161.766 102.533 158.957C95.5498 154.574 88.7891 152.818 81.2877 159.146C81.4905 162.233 82.0251 166.199 81.9239 170.149C81.8426 173.321 83.2675 174.362 86.0359 175.069C103.659 179.564 121.362 183.805 138.791 188.968C146.135 191.144 150.662 188.42 155.317 183.669C154.292 180.977 153.32 178.427 152.104 175.233C144.116 180.005 137.463 176.993 130.778 173.144C126.47 170.664 121.864 168.703 116.743 166.137ZM123.552 126.938C136.243 128.708 146.333 124.409 153.996 114.124C154.653 113.243 156.392 113.168 157.628 112.719C157.808 113.152 157.989 113.586 158.17 114.019C156.949 115.911 155.728 117.803 153.81 120.774C163.181 118.044 171.469 115.629 180.125 113.108C177.501 108.795 175.405 105.019 172.938 101.503C172.224 100.486 170.303 99.4948 169.173 99.7143C151.297 103.184 133.459 106.854 115.7 110.46C114.22 122.66 114.726 123.812 123.552 126.938ZM78.3409 199.555C79.3821 200.367 80.3142 201.65 81.4813 201.921C94.5336 204.953 107.629 207.799 120.698 210.762C126.981 212.186 133.048 213.389 139.295 209.937C142.414 208.214 143.319 206.924 142.877 203.213C142.401 199.22 139.47 199.818 137.584 199.309C120.186 194.614 102.708 190.214 85.2624 185.697C80.2306 184.394 76.1685 187.075 76.2843 192.123C76.3354 194.348 77.501 196.546 78.3409 199.555ZM100.055 216.95C93.2592 215.436 86.4838 213.816 79.6492 212.504C78.3781 212.26 76.4099 212.826 75.5453 213.75C70.49 219.152 70.5749 221.784 75.6034 228.685C83.2827 226.874 91.0226 225.262 98.9466 228.016C102.061 229.098 105.353 229.708 108.599 230.362C112.781 231.204 119.483 225.029 118.863 220.978C112.884 219.656 106.892 218.331 100.055 216.95Z" fill="#050505"/>
</svg>
