<svg width="260" height="260" viewBox="0 0 260 260" fill="none" xmlns="http://www.w3.org/2000/svg">
<path d="M85.746 132.452C91.001 127.553 95.9336 122.837 101.021 118.29C103.046 116.48 103.434 114.705 102.957 112.031C101.252 102.485 96.9988 93.6967 94.8012 84.3077C93.0514 76.8324 94.4554 69.8307 99.6003 64.3874C120.439 42.3397 141.715 20.6973 165.805 1.96791C169.715 -1.0716 172.937 -0.588979 173.779 3.40775C176.769 17.5944 181.001 31.5281 181.794 46.1665C182.52 59.5522 176.449 69.1573 166.202 76.9417C161.458 80.5461 156.703 84.1377 151.344 88.1968C160.25 95.0538 169.55 100.749 176.82 109.306C181.84 102.772 186.611 96.8361 191.081 90.6883C200.512 77.7175 213.013 74.3506 228.305 78.3998C237.287 80.7781 246.124 83.5158 254.74 86.9289C261.139 89.4635 261.654 92.2093 256.534 96.7829C245.579 106.568 235.202 116.906 225.175 127.605C218.043 135.214 212.126 143.744 205.597 151.807C190.297 170.704 182.501 173.293 158.679 166.951C155.196 166.023 151.59 165.433 148.228 164.196C143.645 162.509 140.708 163.763 137.72 167.518C130.942 176.034 123.75 184.233 115.826 191.781C107.262 199.937 98.1425 206.355 85.2605 206.235C74.9096 206.138 64.9622 209.425 55.0103 212.104C52.1301 212.88 50.2581 214.605 48.5582 216.813C38.0487 230.464 26.6671 243.323 13.0962 254.17C11.0954 255.77 9.12355 257.41 7.04947 258.913C4.97984 260.413 2.77163 260.443 1.03566 258.483C-0.828489 256.378 0.0382534 254.375 1.93847 252.748C4.53117 250.528 7.16731 248.354 9.83572 246.221C23.9699 234.926 34.8885 220.707 46.3829 207.052C49.9497 202.815 49.8626 196.898 50.6376 191.579C51.5363 185.409 52.1529 179.197 52.7526 172.99C53.4174 166.111 56.3755 160.41 61.4032 155.646C69.4514 148.019 77.4602 140.353 85.746 132.452ZM113.036 183.112C125.153 168.86 137.902 155.185 151.272 142.048C156.73 136.684 161.425 130.627 165.447 124.076C168.21 119.577 167.987 115.602 164.779 111.471C159.781 105.033 152.818 100.911 146.53 95.9678C143.645 93.7004 141.584 94.0742 138.951 96.243C116.566 114.681 94.7018 133.643 74.8564 154.78C62.2192 168.241 58.2208 184.497 57.6951 202.515C66.4081 200.638 74.9428 198.427 83.641 198.209C95.8537 197.903 104.704 191.93 113.036 183.112ZM154.976 21.4377C140.878 33.8435 127.793 47.2494 114.829 60.7708C107.895 68.0022 102.559 76.0748 104.207 86.5566C105.397 94.1252 109.495 100.907 110.816 109.223C113.15 107.279 114.698 105.969 116.267 104.685C125.357 97.2518 134.03 89.3785 143.931 82.8509C152.736 77.0459 161.376 70.7596 167.842 62.2038C170.442 58.7638 172.835 55.0843 172.503 50.6651C171.534 37.7594 169.587 24.9775 166.909 11.8192C162.374 14.5116 158.87 17.6395 154.976 21.4377ZM239.566 101.511C242.289 98.8457 245.747 96.8294 247.776 92.9678C239.564 89.2748 231.392 86.9668 222.922 85.501C214.044 83.9648 207.923 87.1785 202.062 94.0523C185.884 113.027 170.693 132.851 152.971 150.537C151.37 152.136 149.636 153.808 148.866 156.406C158.882 158.98 168.568 160.842 178.649 160.178C184.722 159.778 189.595 157.316 193.174 152.613C206.998 134.453 222.813 118.047 239.566 101.511Z" fill="black"/>
</svg>
